<svg width="674" height="674" xmlns="http://www.w3.org/2000/svg" xmlns:xlink="http://www.w3.org/1999/xlink" overflow="hidden"><defs><clipPath id="clip0"><rect x="191" y="23" width="674" height="674"/></clipPath><clipPath id="clip1"><rect x="192" y="24" width="672" height="672"/></clipPath><clipPath id="clip2"><rect x="192" y="24" width="672" height="672"/></clipPath><clipPath id="clip3"><rect x="192" y="24" width="672" height="672"/></clipPath><clipPath id="clip4"><rect x="773" y="102" width="5" height="497"/></clipPath></defs><g clip-path="url(#clip0)" transform="translate(-191 -23)"><g clip-path="url(#clip1)"><g clip-path="url(#clip2)"><g clip-path="url(#clip3)"><path d="M192 24 864 24 864 696 192 696Z" fill="#FFFFFF"/><path d="M540.094 66.9583 544.719 66.9583C546.302 66.9583 547.01 67.7292 547.01 69.4583L546.99 70.7083C546.99 71.5833 547.156 72.4167 547.406 73L549.573 73 549.573 72.5625C548.906 72.1042 548.76 71.6042 548.719 69.7292 548.719 67.4375 548.344 66.7292 546.823 66.0833 548.406 65.2917 549.031 64.3542 549.031 62.75 549.031 60.3125 547.531 59 544.781 59L538.323 59 538.323 73 540.094 73ZM540.094 65.3958 540.094 60.5625 544.427 60.5625C545.427 60.5625 546.01 60.7292 546.448 61.1042 546.927 61.5208 547.177 62.1458 547.177 62.9792 547.177 64.6458 546.323 65.3958 544.427 65.3958Z"/><path d="M557.188 62.2708 552.188 62.2708C552.312 61.4583 552.729 60.9583 553.896 60.2292L555.25 59.4792C556.583 58.75 557.271 57.75 557.271 56.5625 557.271 55.75 556.938 55 556.375 54.4792 555.812 53.9583 555.104 53.7292 554.208 53.7292 553 53.7292 552.104 54.1458 551.583 54.9792 551.25 55.5 551.104 56.1042 551.062 57.0833L552.25 57.0833C552.292 56.4167 552.375 56.0417 552.542 55.7083 552.833 55.125 553.458 54.75 554.167 54.75 555.25 54.75 556.062 55.5417 556.062 56.5833 556.062 57.3542 555.604 58.0417 554.771 58.5208L553.521 59.25C551.542 60.3958 550.958 61.2917 550.854 63.4167L557.188 63.4167Z"/><path d="M203.969 385.255 203.969 379.693 202.656 379.693 202.656 385.255 198.927 385.255 198.927 378.922 197.615 378.922 197.615 386.755 209.281 386.755 209.281 385.255Z"/><path d="M200.906 377.313 209.281 377.313 209.281 375.958 204.927 375.958C202.906 375.958 202.01 375.125 202.073 373.271L200.698 373.271C200.677 373.5 200.656 373.625 200.656 373.792 200.656 374.667 201.177 375.313 202.427 376.083L200.906 376.083Z"/><path d="M205.531 364.88C204.26 364.88 203.49 364.985 202.865 365.214 201.49 365.755 200.656 367.047 200.656 368.61 200.656 370.943 202.427 372.443 205.198 372.443 207.969 372.443 209.656 371.005 209.656 368.63 209.656 366.714 208.552 365.401 206.74 365.047L206.74 366.401C207.844 366.776 208.427 367.526 208.427 368.589 208.427 369.443 208.031 370.151 207.323 370.61 206.844 370.922 206.365 371.047 205.531 371.047ZM204.448 371.026C202.906 370.922 201.885 369.964 201.885 368.63 201.885 367.255 202.948 366.318 204.448 366.318Z"/><path d="M212.76 356.276 200.906 356.276 200.906 357.464 202.01 357.464C201.135 358.089 200.656 359.026 200.656 360.13 200.656 362.339 202.469 363.776 205.24 363.776 207.969 363.776 209.656 362.422 209.656 360.193 209.656 359.026 209.24 358.234 208.323 357.609L212.76 357.609ZM201.906 359.943C201.906 358.505 203.177 357.609 205.198 357.609 207.115 357.609 208.406 358.526 208.406 359.943 208.406 361.401 207.115 362.38 205.156 362.38 203.198 362.38 201.906 361.401 201.906 359.943Z"/><path d="M209.281 347.588 200.906 347.588 200.906 348.922 205.656 348.922C207.365 348.922 208.49 349.818 208.49 351.193 208.49 352.255 207.844 352.922 206.823 352.922L200.906 352.922 200.906 354.255 207.365 354.255C208.76 354.255 209.656 353.213 209.656 351.588 209.656 350.359 209.219 349.568 208.115 348.776L209.281 348.776Z"/><path d="M205.531 338.192C204.26 338.192 203.49 338.297 202.865 338.526 201.49 339.067 200.656 340.359 200.656 341.922 200.656 344.255 202.427 345.755 205.198 345.755 207.969 345.755 209.656 344.317 209.656 341.942 209.656 340.026 208.552 338.713 206.74 338.359L206.74 339.713C207.844 340.088 208.427 340.838 208.427 341.901 208.427 342.755 208.031 343.463 207.323 343.922 206.844 344.234 206.365 344.359 205.531 344.359ZM204.448 344.338C202.906 344.234 201.885 343.276 201.885 341.942 201.885 340.567 202.948 339.63 204.448 339.63Z"/><path d="M200.906 336.38 209.281 336.38 209.281 335.046 204.656 335.046C202.948 335.046 201.823 334.151 201.823 332.776 201.823 331.713 202.469 331.046 203.469 331.046L209.281 331.046 209.281 329.713 202.948 329.713C201.552 329.713 200.656 330.755 200.656 332.359 200.656 333.609 201.135 334.421 202.302 335.151L200.906 335.151Z"/><path d="M203.719 321.067C202.906 321.13 202.365 321.317 201.906 321.63 201.115 322.213 200.656 323.213 200.656 324.38 200.656 326.65 202.448 328.109 205.24 328.109 207.927 328.109 209.656 326.671 209.656 324.4 209.656 322.4 208.448 321.13 206.406 320.984L206.406 322.317C207.74 322.546 208.427 323.234 208.427 324.359 208.427 325.838 207.219 326.713 205.24 326.713 203.135 326.713 201.885 325.859 201.885 324.4 201.885 323.275 202.552 322.567 203.719 322.421Z"/><path d="M200.906 314.4 207.427 316.713 200.906 318.859 200.906 320.296 209.323 317.463 210.635 317.963C211.24 318.192 211.448 318.484 211.448 319.046 211.448 319.255 211.427 319.463 211.365 319.755L212.552 319.755C212.698 319.463 212.76 319.192 212.76 318.859 212.76 318.421 212.635 317.963 212.365 317.609 212.073 317.192 211.719 316.942 211.031 316.692L200.906 312.963Z"/><path d="M291.198 598.078 803.198 598.078" stroke="#000000" stroke-linecap="round" stroke-linejoin="round" stroke-miterlimit="10" fill="none"/><path d="M291.198 598.078 291.198 607.682" stroke="#000000" stroke-linecap="round" stroke-linejoin="round" stroke-miterlimit="10" fill="none"/><path d="M419.198 598.078 419.198 607.682" stroke="#000000" stroke-linecap="round" stroke-linejoin="round" stroke-miterlimit="10" fill="none"/><path d="M547.198 598.078 547.198 607.682" stroke="#000000" stroke-linecap="round" stroke-linejoin="round" stroke-miterlimit="10" fill="none"/><path d="M675.198 598.078 675.198 607.682" stroke="#000000" stroke-linecap="round" stroke-linejoin="round" stroke-miterlimit="10" fill="none"/><path d="M803.198 598.078 803.198 607.682" stroke="#000000" stroke-linecap="round" stroke-linejoin="round" stroke-miterlimit="10" fill="none"/><path d="M277.505 627.641 273.693 627.641 273.693 628.807 277.505 628.807Z"/><path d="M282.687 621.078C281.646 621.078 280.667 621.557 280.083 622.328 279.354 623.37 278.979 624.891 278.979 627.036 278.979 630.953 280.25 633.016 282.687 633.016 285.083 633.016 286.396 630.953 286.396 627.141 286.396 624.891 286.042 623.391 285.292 622.328 284.708 621.536 283.771 621.078 282.687 621.078ZM282.687 622.328C284.208 622.328 284.958 623.87 284.958 627.016 284.958 630.307 284.229 631.849 282.667 631.849 281.167 631.849 280.417 630.245 280.417 627.057 280.417 623.87 281.167 622.328 282.687 622.328Z"/><path d="M290.25 630.974 288.583 630.974 288.583 632.641 290.25 632.641Z"/><path d="M296.031 621.078C294.99 621.078 294.011 621.557 293.427 622.328 292.698 623.37 292.323 624.891 292.323 627.036 292.323 630.953 293.594 633.016 296.031 633.016 298.427 633.016 299.74 630.953 299.74 627.141 299.74 624.891 299.386 623.391 298.636 622.328 298.052 621.536 297.115 621.078 296.031 621.078ZM296.031 622.328C297.552 622.328 298.302 623.87 298.302 627.016 298.302 630.307 297.573 631.849 296.011 631.849 294.511 631.849 293.761 630.245 293.761 627.057 293.761 623.87 294.511 622.328 296.031 622.328Z"/><path d="M305.761 629.849 305.761 632.641 307.177 632.641 307.177 629.849 308.844 629.849 308.844 628.578 307.177 628.578 307.177 621.078 306.136 621.078 300.99 628.349 300.99 629.849ZM305.761 628.578 302.219 628.578 305.761 623.474Z"/><path d="M405.505 627.641 401.693 627.641 401.693 628.807 405.505 628.807Z"/><path d="M410.687 621.078C409.646 621.078 408.667 621.557 408.083 622.328 407.354 623.37 406.979 624.891 406.979 627.036 406.979 630.953 408.25 633.016 410.687 633.016 413.083 633.016 414.396 630.953 414.396 627.141 414.396 624.891 414.042 623.391 413.292 622.328 412.708 621.536 411.771 621.078 410.687 621.078ZM410.687 622.328C412.208 622.328 412.958 623.87 412.958 627.016 412.958 630.307 412.229 631.849 410.667 631.849 409.167 631.849 408.417 630.245 408.417 627.057 408.417 623.87 409.167 622.328 410.687 622.328Z"/><path d="M418.25 630.974 416.583 630.974 416.583 632.641 418.25 632.641Z"/><path d="M424.031 621.078C422.99 621.078 422.011 621.557 421.427 622.328 420.698 623.37 420.323 624.891 420.323 627.036 420.323 630.953 421.594 633.016 424.031 633.016 426.427 633.016 427.74 630.953 427.74 627.141 427.74 624.891 427.386 623.391 426.636 622.328 426.052 621.536 425.115 621.078 424.031 621.078ZM424.031 622.328C425.552 622.328 426.302 623.87 426.302 627.016 426.302 630.307 425.573 631.849 424.011 631.849 422.511 631.849 421.761 630.245 421.761 627.057 421.761 623.87 422.511 622.328 424.031 622.328Z"/><path d="M436.636 631.245 430.657 631.245C430.802 630.286 431.323 629.682 432.698 628.828L434.302 627.932C435.886 627.057 436.698 625.87 436.698 624.453 436.698 623.495 436.323 622.599 435.657 621.974 434.99 621.37 434.157 621.078 433.073 621.078 431.636 621.078 430.573 621.578 429.948 622.578 429.532 623.182 429.365 623.911 429.323 625.078L430.74 625.078C430.782 624.286 430.886 623.828 431.073 623.432 431.448 622.745 432.177 622.307 433.032 622.307 434.302 622.307 435.261 623.224 435.261 624.474 435.261 625.411 434.74 626.203 433.74 626.786L432.261 627.641C429.886 629.016 429.198 630.099 429.073 632.62L436.636 632.62Z"/><path d="M536.026 621.078C534.984 621.078 534.005 621.557 533.422 622.328 532.693 623.37 532.318 624.891 532.318 627.036 532.318 630.953 533.589 633.016 536.026 633.016 538.422 633.016 539.734 630.953 539.734 627.141 539.734 624.891 539.38 623.391 538.63 622.328 538.047 621.536 537.109 621.078 536.026 621.078ZM536.026 622.328C537.547 622.328 538.297 623.87 538.297 627.016 538.297 630.307 537.568 631.849 536.005 631.849 534.505 631.849 533.755 630.245 533.755 627.057 533.755 623.87 534.505 622.328 536.026 622.328Z"/><path d="M543.589 630.974 541.922 630.974 541.922 632.641 543.589 632.641Z"/><path d="M549.37 621.078C548.328 621.078 547.349 621.557 546.766 622.328 546.037 623.37 545.662 624.891 545.662 627.036 545.662 630.953 546.932 633.016 549.37 633.016 551.766 633.016 553.078 630.953 553.078 627.141 553.078 624.891 552.724 623.391 551.974 622.328 551.391 621.536 550.453 621.078 549.37 621.078ZM549.37 622.328C550.891 622.328 551.641 623.87 551.641 627.016 551.641 630.307 550.912 631.849 549.349 631.849 547.849 631.849 547.099 630.245 547.099 627.057 547.099 623.87 547.849 622.328 549.37 622.328Z"/><path d="M558.266 621.078C557.224 621.078 556.245 621.557 555.662 622.328 554.933 623.37 554.558 624.891 554.558 627.036 554.558 630.953 555.828 633.016 558.266 633.016 560.662 633.016 561.974 630.953 561.974 627.141 561.974 624.891 561.62 623.391 560.87 622.328 560.287 621.536 559.349 621.078 558.266 621.078ZM558.266 622.328C559.787 622.328 560.537 623.87 560.537 627.016 560.537 630.307 559.808 631.849 558.245 631.849 556.745 631.849 555.995 630.245 555.995 627.057 555.995 623.87 556.745 622.328 558.266 622.328Z"/><path d="M664.026 621.078C662.984 621.078 662.005 621.557 661.422 622.328 660.693 623.37 660.318 624.891 660.318 627.036 660.318 630.953 661.589 633.016 664.026 633.016 666.422 633.016 667.734 630.953 667.734 627.141 667.734 624.891 667.38 623.391 666.63 622.328 666.047 621.536 665.109 621.078 664.026 621.078ZM664.026 622.328C665.547 622.328 666.297 623.87 666.297 627.016 666.297 630.307 665.568 631.849 664.005 631.849 662.505 631.849 661.755 630.245 661.755 627.057 661.755 623.87 662.505 622.328 664.026 622.328Z"/><path d="M671.589 630.974 669.922 630.974 669.922 632.641 671.589 632.641Z"/><path d="M677.37 621.078C676.328 621.078 675.349 621.557 674.766 622.328 674.037 623.37 673.662 624.891 673.662 627.036 673.662 630.953 674.932 633.016 677.37 633.016 679.766 633.016 681.078 630.953 681.078 627.141 681.078 624.891 680.724 623.391 679.974 622.328 679.391 621.536 678.453 621.078 677.37 621.078ZM677.37 622.328C678.891 622.328 679.641 623.87 679.641 627.016 679.641 630.307 678.912 631.849 677.349 631.849 675.849 631.849 675.099 630.245 675.099 627.057 675.099 623.87 675.849 622.328 677.37 622.328Z"/><path d="M689.974 631.245 683.995 631.245C684.141 630.286 684.662 629.682 686.037 628.828L687.641 627.932C689.224 627.057 690.037 625.87 690.037 624.453 690.037 623.495 689.662 622.599 688.995 621.974 688.328 621.37 687.495 621.078 686.412 621.078 684.974 621.078 683.912 621.578 683.287 622.578 682.87 623.182 682.703 623.911 682.662 625.078L684.078 625.078C684.12 624.286 684.224 623.828 684.412 623.432 684.787 622.745 685.516 622.307 686.37 622.307 687.641 622.307 688.599 623.224 688.599 624.474 688.599 625.411 688.078 626.203 687.078 626.786L685.599 627.641C683.224 629.016 682.537 630.099 682.412 632.62L689.974 632.62Z"/><path d="M792.026 621.078C790.984 621.078 790.005 621.557 789.422 622.328 788.693 623.37 788.318 624.891 788.318 627.036 788.318 630.953 789.589 633.016 792.026 633.016 794.422 633.016 795.734 630.953 795.734 627.141 795.734 624.891 795.38 623.391 794.63 622.328 794.047 621.536 793.109 621.078 792.026 621.078ZM792.026 622.328C793.547 622.328 794.297 623.87 794.297 627.016 794.297 630.307 793.568 631.849 792.005 631.849 790.505 631.849 789.755 630.245 789.755 627.057 789.755 623.87 790.505 622.328 792.026 622.328Z"/><path d="M799.589 630.974 797.922 630.974 797.922 632.641 799.589 632.641Z"/><path d="M805.37 621.078C804.328 621.078 803.349 621.557 802.766 622.328 802.037 623.37 801.662 624.891 801.662 627.036 801.662 630.953 802.932 633.016 805.37 633.016 807.766 633.016 809.078 630.953 809.078 627.141 809.078 624.891 808.724 623.391 807.974 622.328 807.391 621.536 806.453 621.078 805.37 621.078ZM805.37 622.328C806.891 622.328 807.641 623.87 807.641 627.016 807.641 630.307 806.912 631.849 805.349 631.849 803.849 631.849 803.099 630.245 803.099 627.057 803.099 623.87 803.849 622.328 805.37 622.328Z"/><path d="M815.099 629.849 815.099 632.641 816.516 632.641 816.516 629.849 818.183 629.849 818.183 628.578 816.516 628.578 816.516 621.078 815.474 621.078 810.328 628.349 810.328 629.849ZM815.099 628.578 811.558 628.578 815.099 623.474Z"/><path d="M270.719 579.734 270.719 155.042" stroke="#000000" stroke-linecap="round" stroke-linejoin="round" stroke-miterlimit="10" fill="none"/><path d="M270.719 579.734 261.12 579.734" stroke="#000000" stroke-linecap="round" stroke-linejoin="round" stroke-miterlimit="10" fill="none"/><path d="M270.719 494.797 261.12 494.797" stroke="#000000" stroke-linecap="round" stroke-linejoin="round" stroke-miterlimit="10" fill="none"/><path d="M270.719 409.859 261.12 409.859" stroke="#000000" stroke-linecap="round" stroke-linejoin="round" stroke-miterlimit="10" fill="none"/><path d="M270.719 324.917 261.12 324.917" stroke="#000000" stroke-linecap="round" stroke-linejoin="round" stroke-miterlimit="10" fill="none"/><path d="M270.719 239.979 261.12 239.979" stroke="#000000" stroke-linecap="round" stroke-linejoin="round" stroke-miterlimit="10" fill="none"/><path d="M270.719 155.042 261.12 155.042" stroke="#000000" stroke-linecap="round" stroke-linejoin="round" stroke-miterlimit="10" fill="none"/><path d="M236.12 579.786C236.12 580.828 236.599 581.807 237.37 582.391 238.411 583.12 239.932 583.495 242.078 583.495 245.995 583.495 248.057 582.224 248.057 579.786 248.057 577.391 245.995 576.078 242.182 576.078 239.932 576.078 238.432 576.432 237.37 577.182 236.578 577.766 236.12 578.703 236.12 579.786ZM237.37 579.786C237.37 578.266 238.911 577.516 242.057 577.516 245.349 577.516 246.891 578.245 246.891 579.807 246.891 581.307 245.286 582.057 242.099 582.057 238.911 582.057 237.37 581.307 237.37 579.786Z"/><path d="M236.328 491.62 236.328 497.495 242.516 498.328 242.516 497.036C241.724 496.391 241.453 495.828 241.453 494.932 241.453 493.411 242.495 492.474 244.182 492.474 245.807 492.474 246.807 493.411 246.807 494.953 246.807 496.182 246.182 496.932 244.891 497.286L244.891 498.682C245.828 498.495 246.266 498.328 246.682 497.995 247.557 497.349 248.057 496.203 248.057 494.932 248.057 492.641 246.391 491.036 243.995 491.036 241.745 491.036 240.203 492.516 240.203 494.703 240.203 495.495 240.411 496.141 240.891 496.786L237.724 496.349 237.724 491.62Z"/><path d="M239.432 414.609 247.682 414.609 247.682 413.214 236.12 413.214 236.12 414.13C237.891 414.63 238.141 414.943 238.411 417.13L239.432 417.13Z"/><path d="M236.12 405.463C236.12 406.505 236.599 407.484 237.37 408.068 238.411 408.797 239.932 409.172 242.078 409.172 245.995 409.172 248.057 407.901 248.057 405.463 248.057 403.068 245.995 401.755 242.182 401.755 239.932 401.755 238.432 402.109 237.37 402.859 236.578 403.443 236.12 404.38 236.12 405.463ZM237.37 405.463C237.37 403.943 238.911 403.193 242.057 403.193 245.349 403.193 246.891 403.922 246.891 405.484 246.891 406.984 245.286 407.734 242.099 407.734 238.911 407.734 237.37 406.984 237.37 405.463Z"/><path d="M239.432 329.667 247.682 329.667 247.682 328.271 236.12 328.271 236.12 329.188C237.891 329.688 238.141 330 238.411 332.188L239.432 332.188Z"/><path d="M236.328 317.292 236.328 323.167 242.516 324 242.516 322.708C241.724 322.062 241.453 321.5 241.453 320.604 241.453 319.083 242.495 318.146 244.182 318.146 245.807 318.146 246.807 319.083 246.807 320.625 246.807 321.854 246.182 322.604 244.891 322.958L244.891 324.354C245.828 324.167 246.266 324 246.682 323.667 247.557 323.021 248.057 321.875 248.057 320.604 248.057 318.312 246.391 316.708 243.995 316.708 241.745 316.708 240.203 318.187 240.203 320.375 240.203 321.167 240.411 321.812 240.891 322.458L237.724 322.021 237.724 317.292Z"/><path d="M246.286 240.771 246.286 246.75C245.328 246.604 244.724 246.083 243.87 244.708L242.974 243.104C242.099 241.521 240.911 240.708 239.495 240.708 238.536 240.708 237.641 241.083 237.016 241.75 236.411 242.417 236.12 243.25 236.12 244.333 236.12 245.771 236.62 246.833 237.62 247.458 238.224 247.875 238.953 248.042 240.12 248.083L240.12 246.667C239.328 246.625 238.87 246.521 238.474 246.333 237.786 245.958 237.349 245.229 237.349 244.375 237.349 243.104 238.266 242.146 239.516 242.146 240.453 242.146 241.245 242.667 241.828 243.667L242.682 245.146C244.057 247.521 245.141 248.208 247.661 248.333L247.661 240.771Z"/><path d="M236.12 235.583C236.12 236.625 236.599 237.604 237.37 238.187 238.411 238.917 239.932 239.292 242.078 239.292 245.995 239.292 248.057 238.021 248.057 235.583 248.057 233.187 245.995 231.875 242.182 231.875 239.932 231.875 238.432 232.229 237.37 232.979 236.578 233.562 236.12 234.5 236.12 235.583ZM237.37 235.583C237.37 234.062 238.911 233.312 242.057 233.312 245.349 233.312 246.891 234.042 246.891 235.604 246.891 237.104 245.286 237.854 242.099 237.854 238.911 237.854 237.37 237.104 237.37 235.583Z"/><path d="M246.286 155.833 246.286 161.812C245.328 161.667 244.724 161.146 243.87 159.771L242.974 158.167C242.099 156.583 240.911 155.771 239.495 155.771 238.536 155.771 237.641 156.146 237.016 156.812 236.411 157.479 236.12 158.312 236.12 159.396 236.12 160.833 236.62 161.896 237.62 162.521 238.224 162.938 238.953 163.104 240.12 163.146L240.12 161.729C239.328 161.688 238.87 161.583 238.474 161.396 237.786 161.021 237.349 160.292 237.349 159.438 237.349 158.167 238.266 157.208 239.516 157.208 240.453 157.208 241.245 157.729 241.828 158.729L242.682 160.208C244.057 162.583 245.141 163.271 247.661 163.396L247.661 155.833Z"/><path d="M236.328 147.417 236.328 153.292 242.516 154.125 242.516 152.833C241.724 152.187 241.453 151.625 241.453 150.729 241.453 149.208 242.495 148.271 244.182 148.271 245.807 148.271 246.807 149.208 246.807 150.75 246.807 151.979 246.182 152.729 244.891 153.083L244.891 154.479C245.828 154.292 246.266 154.125 246.682 153.792 247.557 153.146 248.057 152 248.057 150.729 248.057 148.437 246.391 146.833 243.995 146.833 241.745 146.833 240.203 148.312 240.203 150.5 240.203 151.292 240.411 151.937 240.891 152.583L237.724 152.146 237.724 147.417Z"/><path d="M332.802 579.734 336 579.734 336 562.745 332.802 562.745Z" stroke="#000000" stroke-linecap="round" stroke-linejoin="round" stroke-miterlimit="10"/><path d="M336 579.734 339.198 579.734 339.198 562.745 336 562.745Z" stroke="#000000" stroke-linecap="round" stroke-linejoin="round" stroke-miterlimit="10"/><path d="M339.198 579.734 342.396 579.734Z" stroke="#000000" stroke-linecap="round" stroke-linejoin="round" stroke-miterlimit="10" fill="none"/><path d="M342.401 579.734 345.599 579.734Z" stroke="#000000" stroke-linecap="round" stroke-linejoin="round" stroke-miterlimit="10" fill="none"/><path d="M345.599 579.734 348.797 579.734 348.797 545.76 345.599 545.76Z" stroke="#000000" stroke-linecap="round" stroke-linejoin="round" stroke-miterlimit="10"/><path d="M348.802 579.734 352 579.734Z" stroke="#000000" stroke-linecap="round" stroke-linejoin="round" stroke-miterlimit="10" fill="none"/><path d="M352 579.734 355.198 579.734 355.198 562.745 352 562.745Z" stroke="#000000" stroke-linecap="round" stroke-linejoin="round" stroke-miterlimit="10"/><path d="M355.198 579.734 358.396 579.734Z" stroke="#000000" stroke-linecap="round" stroke-linejoin="round" stroke-miterlimit="10" fill="none"/><path d="M358.401 579.734 361.599 579.734 361.599 562.745 358.401 562.745Z" stroke="#000000" stroke-linecap="round" stroke-linejoin="round" stroke-miterlimit="10"/><path d="M361.599 579.734 364.797 579.734Z" stroke="#000000" stroke-linecap="round" stroke-linejoin="round" stroke-miterlimit="10" fill="none"/><path d="M364.802 579.734 368 579.734Z" stroke="#000000" stroke-linecap="round" stroke-linejoin="round" stroke-miterlimit="10" fill="none"/><path d="M368 579.734 371.198 579.734Z" stroke="#000000" stroke-linecap="round" stroke-linejoin="round" stroke-miterlimit="10" fill="none"/><path d="M371.198 579.734 374.396 579.734 374.396 562.745 371.198 562.745Z" stroke="#000000" stroke-linecap="round" stroke-linejoin="round" stroke-miterlimit="10"/><path d="M374.401 579.734 377.599 579.734 377.599 545.76 374.401 545.76Z" stroke="#000000" stroke-linecap="round" stroke-linejoin="round" stroke-miterlimit="10"/><path d="M377.599 579.734 380.797 579.734 380.797 562.745 377.599 562.745Z" stroke="#000000" stroke-linecap="round" stroke-linejoin="round" stroke-miterlimit="10"/><path d="M380.802 579.734 384 579.734Z" stroke="#000000" stroke-linecap="round" stroke-linejoin="round" stroke-miterlimit="10" fill="none"/><path d="M384 579.734 387.198 579.734 387.198 562.745 384 562.745Z" stroke="#000000" stroke-linecap="round" stroke-linejoin="round" stroke-miterlimit="10"/><path d="M387.198 579.734 390.396 579.734 390.396 562.745 387.198 562.745Z" stroke="#000000" stroke-linecap="round" stroke-linejoin="round" stroke-miterlimit="10"/><path d="M390.401 579.734 393.599 579.734 393.599 494.797 390.401 494.797Z" stroke="#000000" stroke-linecap="round" stroke-linejoin="round" stroke-miterlimit="10"/><path d="M393.599 579.734 396.797 579.734 396.797 545.76 393.599 545.76Z" stroke="#000000" stroke-linecap="round" stroke-linejoin="round" stroke-miterlimit="10"/><path d="M396.802 579.734 400 579.734 400 528.771 396.802 528.771Z" stroke="#000000" stroke-linecap="round" stroke-linejoin="round" stroke-miterlimit="10"/><path d="M400 579.734 403.198 579.734 403.198 494.797 400 494.797Z" stroke="#000000" stroke-linecap="round" stroke-linejoin="round" stroke-miterlimit="10"/><path d="M403.198 579.734 406.396 579.734 406.396 511.781 403.198 511.781Z" stroke="#000000" stroke-linecap="round" stroke-linejoin="round" stroke-miterlimit="10"/><path d="M406.401 579.734 409.599 579.734 409.599 528.771 406.401 528.771Z" stroke="#000000" stroke-linecap="round" stroke-linejoin="round" stroke-miterlimit="10"/><path d="M409.599 579.734 412.797 579.734 412.797 528.771 409.599 528.771Z" stroke="#000000" stroke-linecap="round" stroke-linejoin="round" stroke-miterlimit="10"/><path d="M412.802 579.734 416 579.734 416 545.76 412.802 545.76Z" stroke="#000000" stroke-linecap="round" stroke-linejoin="round" stroke-miterlimit="10"/><path d="M416 579.734 419.198 579.734Z" stroke="#000000" stroke-linecap="round" stroke-linejoin="round" stroke-miterlimit="10" fill="none"/><path d="M419.198 579.734 422.396 579.734 422.396 528.771 419.198 528.771Z" stroke="#000000" stroke-linecap="round" stroke-linejoin="round" stroke-miterlimit="10"/><path d="M422.401 579.734 425.599 579.734 425.599 528.771 422.401 528.771Z" stroke="#000000" stroke-linecap="round" stroke-linejoin="round" stroke-miterlimit="10"/><path d="M425.599 579.734 428.797 579.734 428.797 494.797 425.599 494.797Z" stroke="#000000" stroke-linecap="round" stroke-linejoin="round" stroke-miterlimit="10"/><path d="M428.802 579.734 432 579.734 432 477.807 428.802 477.807Z" stroke="#000000" stroke-linecap="round" stroke-linejoin="round" stroke-miterlimit="10"/><path d="M432 579.734 435.198 579.734 435.198 562.745 432 562.745Z" stroke="#000000" stroke-linecap="round" stroke-linejoin="round" stroke-miterlimit="10"/><path d="M435.198 579.734 438.396 579.734 438.396 528.771 435.198 528.771Z" stroke="#000000" stroke-linecap="round" stroke-linejoin="round" stroke-miterlimit="10"/><path d="M438.401 579.734 441.599 579.734 441.599 528.771 438.401 528.771Z" stroke="#000000" stroke-linecap="round" stroke-linejoin="round" stroke-miterlimit="10"/><path d="M441.599 579.734 444.797 579.734 444.797 477.807 441.599 477.807Z" stroke="#000000" stroke-linecap="round" stroke-linejoin="round" stroke-miterlimit="10"/><path d="M444.802 579.734 448 579.734 448 528.771 444.802 528.771Z" stroke="#000000" stroke-linecap="round" stroke-linejoin="round" stroke-miterlimit="10"/><path d="M448 579.734 451.198 579.734 451.198 460.823 448 460.823Z" stroke="#000000" stroke-linecap="round" stroke-linejoin="round" stroke-miterlimit="10"/><path d="M451.198 579.734 454.396 579.734 454.396 392.87 451.198 392.87Z" stroke="#000000" stroke-linecap="round" stroke-linejoin="round" stroke-miterlimit="10"/><path d="M454.401 579.734 457.599 579.734 457.599 528.771 454.401 528.771Z" stroke="#000000" stroke-linecap="round" stroke-linejoin="round" stroke-miterlimit="10"/><path d="M457.599 579.734 460.797 579.734 460.797 375.88 457.599 375.88Z" stroke="#000000" stroke-linecap="round" stroke-linejoin="round" stroke-miterlimit="10"/><path d="M460.802 579.734 464 579.734 464 409.859 460.802 409.859Z" stroke="#000000" stroke-linecap="round" stroke-linejoin="round" stroke-miterlimit="10"/><path d="M464 579.734 467.198 579.734 467.198 256.969 464 256.969Z" stroke="#000000" stroke-linecap="round" stroke-linejoin="round" stroke-miterlimit="10"/><path d="M467.198 579.734 470.396 579.734 470.396 375.88 467.198 375.88Z" stroke="#000000" stroke-linecap="round" stroke-linejoin="round" stroke-miterlimit="10"/><path d="M470.401 579.734 473.599 579.734 473.599 494.797 470.401 494.797Z" stroke="#000000" stroke-linecap="round" stroke-linejoin="round" stroke-miterlimit="10"/><path d="M473.599 579.734 476.797 579.734 476.797 426.844 473.599 426.844Z" stroke="#000000" stroke-linecap="round" stroke-linejoin="round" stroke-miterlimit="10"/><path d="M476.802 579.734 480 579.734 480 392.87 476.802 392.87Z" stroke="#000000" stroke-linecap="round" stroke-linejoin="round" stroke-miterlimit="10"/><path d="M480 579.734 483.198 579.734 483.198 409.859 480 409.859Z" stroke="#000000" stroke-linecap="round" stroke-linejoin="round" stroke-miterlimit="10"/><path d="M483.198 579.734 486.396 579.734 486.396 358.896 483.198 358.896Z" stroke="#000000" stroke-linecap="round" stroke-linejoin="round" stroke-miterlimit="10"/><path d="M486.401 579.734 489.599 579.734 489.599 460.823 486.401 460.823Z" stroke="#000000" stroke-linecap="round" stroke-linejoin="round" stroke-miterlimit="10"/><path d="M489.599 579.734 492.797 579.734 492.797 341.906 489.599 341.906Z" stroke="#000000" stroke-linecap="round" stroke-linejoin="round" stroke-miterlimit="10"/><path d="M492.802 579.734 496 579.734 496 307.932 492.802 307.932Z" stroke="#000000" stroke-linecap="round" stroke-linejoin="round" stroke-miterlimit="10"/><path d="M496 579.734 499.198 579.734 499.198 375.88 496 375.88Z" stroke="#000000" stroke-linecap="round" stroke-linejoin="round" stroke-miterlimit="10"/><path d="M499.198 579.734 502.396 579.734 502.396 341.906 499.198 341.906Z" stroke="#000000" stroke-linecap="round" stroke-linejoin="round" stroke-miterlimit="10"/><path d="M502.401 579.734 505.599 579.734 505.599 324.922 502.401 324.922Z" stroke="#000000" stroke-linecap="round" stroke-linejoin="round" stroke-miterlimit="10"/><path d="M505.599 579.734 508.797 579.734 508.797 409.859 505.599 409.859Z" stroke="#000000" stroke-linecap="round" stroke-linejoin="round" stroke-miterlimit="10"/><path d="M508.802 579.734 512 579.734 512 341.906 508.802 341.906Z" stroke="#000000" stroke-linecap="round" stroke-linejoin="round" stroke-miterlimit="10"/><path d="M512 579.734 515.198 579.734 515.198 239.979 512 239.979Z" stroke="#000000" stroke-linecap="round" stroke-linejoin="round" stroke-miterlimit="10"/><path d="M515.198 579.734 518.396 579.734 518.396 341.906 515.198 341.906Z" stroke="#000000" stroke-linecap="round" stroke-linejoin="round" stroke-miterlimit="10"/><path d="M518.401 579.734 521.599 579.734 521.599 341.906 518.401 341.906Z" stroke="#000000" stroke-linecap="round" stroke-linejoin="round" stroke-miterlimit="10"/><path d="M521.599 579.734 524.797 579.734 524.797 273.958 521.599 273.958Z" stroke="#000000" stroke-linecap="round" stroke-linejoin="round" stroke-miterlimit="10"/><path d="M524.802 579.734 528 579.734 528 222.995 524.802 222.995Z" stroke="#000000" stroke-linecap="round" stroke-linejoin="round" stroke-miterlimit="10"/><path d="M528 579.734 531.198 579.734 531.198 324.922 528 324.922Z" stroke="#000000" stroke-linecap="round" stroke-linejoin="round" stroke-miterlimit="10"/><path d="M531.198 579.734 534.396 579.734 534.396 206.005 531.198 206.005Z" stroke="#000000" stroke-linecap="round" stroke-linejoin="round" stroke-miterlimit="10"/><path d="M534.401 579.734 537.599 579.734 537.599 222.995 534.401 222.995Z" stroke="#000000" stroke-linecap="round" stroke-linejoin="round" stroke-miterlimit="10"/><path d="M537.599 579.734 540.797 579.734 540.797 375.88 537.599 375.88Z" stroke="#000000" stroke-linecap="round" stroke-linejoin="round" stroke-miterlimit="10"/><path d="M540.802 579.734 544 579.734 544 138.057 540.802 138.057Z" stroke="#000000" stroke-linecap="round" stroke-linejoin="round" stroke-miterlimit="10"/><path d="M544 579.734 547.198 579.734 547.198 256.969 544 256.969Z" stroke="#000000" stroke-linecap="round" stroke-linejoin="round" stroke-miterlimit="10"/><path d="M547.198 579.734 550.396 579.734 550.396 273.958 547.198 273.958Z" stroke="#000000" stroke-linecap="round" stroke-linejoin="round" stroke-miterlimit="10"/><path d="M550.401 579.734 553.599 579.734 553.599 222.995 550.401 222.995Z" stroke="#000000" stroke-linecap="round" stroke-linejoin="round" stroke-miterlimit="10"/><path d="M553.599 579.734 556.797 579.734 556.797 172.031 553.599 172.031Z" stroke="#000000" stroke-linecap="round" stroke-linejoin="round" stroke-miterlimit="10"/><path d="M556.802 579.734 560 579.734 560 206.005 556.802 206.005Z" stroke="#000000" stroke-linecap="round" stroke-linejoin="round" stroke-miterlimit="10"/><path d="M560 579.734 563.198 579.734 563.198 273.958 560 273.958Z" stroke="#000000" stroke-linecap="round" stroke-linejoin="round" stroke-miterlimit="10"/><path d="M563.198 579.734 566.396 579.734 566.396 273.958 563.198 273.958Z" stroke="#000000" stroke-linecap="round" stroke-linejoin="round" stroke-miterlimit="10"/><path d="M566.401 579.734 569.599 579.734 569.599 256.969 566.401 256.969Z" stroke="#000000" stroke-linecap="round" stroke-linejoin="round" stroke-miterlimit="10"/><path d="M569.599 579.734 572.797 579.734 572.797 273.958 569.599 273.958Z" stroke="#000000" stroke-linecap="round" stroke-linejoin="round" stroke-miterlimit="10"/><path d="M572.802 579.734 576 579.734 576 121.068 572.802 121.068Z" stroke="#000000" stroke-linecap="round" stroke-linejoin="round" stroke-miterlimit="10"/><path d="M576 579.734 579.198 579.734 579.198 155.042 576 155.042Z" stroke="#000000" stroke-linecap="round" stroke-linejoin="round" stroke-miterlimit="10"/><path d="M579.198 579.734 582.396 579.734 582.396 256.969 579.198 256.969Z" stroke="#000000" stroke-linecap="round" stroke-linejoin="round" stroke-miterlimit="10"/><path d="M582.401 579.734 585.599 579.734 585.599 375.88 582.401 375.88Z" stroke="#000000" stroke-linecap="round" stroke-linejoin="round" stroke-miterlimit="10"/><path d="M585.599 579.734 588.797 579.734 588.797 358.896 585.599 358.896Z" stroke="#000000" stroke-linecap="round" stroke-linejoin="round" stroke-miterlimit="10"/><path d="M588.802 579.734 592 579.734 592 392.87 588.802 392.87Z" stroke="#000000" stroke-linecap="round" stroke-linejoin="round" stroke-miterlimit="10"/><path d="M592 579.734 595.198 579.734 595.198 392.87 592 392.87Z" stroke="#000000" stroke-linecap="round" stroke-linejoin="round" stroke-miterlimit="10"/><path d="M595.198 579.734 598.396 579.734 598.396 239.979 595.198 239.979Z" stroke="#000000" stroke-linecap="round" stroke-linejoin="round" stroke-miterlimit="10"/><path d="M598.401 579.734 601.599 579.734 601.599 307.932 598.401 307.932Z" stroke="#000000" stroke-linecap="round" stroke-linejoin="round" stroke-miterlimit="10"/><path d="M601.599 579.734 604.797 579.734 604.797 426.844 601.599 426.844Z" stroke="#000000" stroke-linecap="round" stroke-linejoin="round" stroke-miterlimit="10"/><path d="M604.802 579.734 608 579.734 608 375.88 604.802 375.88Z" stroke="#000000" stroke-linecap="round" stroke-linejoin="round" stroke-miterlimit="10"/><path d="M608 579.734 611.198 579.734 611.198 409.859 608 409.859Z" stroke="#000000" stroke-linecap="round" stroke-linejoin="round" stroke-miterlimit="10"/><path d="M611.198 579.734 614.396 579.734 614.396 324.922 611.198 324.922Z" stroke="#000000" stroke-linecap="round" stroke-linejoin="round" stroke-miterlimit="10"/><path d="M614.401 579.734 617.599 579.734 617.599 324.922 614.401 324.922Z" stroke="#000000" stroke-linecap="round" stroke-linejoin="round" stroke-miterlimit="10"/><path d="M617.599 579.734 620.797 579.734 620.797 477.807 617.599 477.807Z" stroke="#000000" stroke-linecap="round" stroke-linejoin="round" stroke-miterlimit="10"/><path d="M620.802 579.734 624 579.734 624 392.87 620.802 392.87Z" stroke="#000000" stroke-linecap="round" stroke-linejoin="round" stroke-miterlimit="10"/><path d="M624 579.734 627.198 579.734 627.198 511.781 624 511.781Z" stroke="#000000" stroke-linecap="round" stroke-linejoin="round" stroke-miterlimit="10"/><path d="M627.198 579.734 630.396 579.734 630.396 477.807 627.198 477.807Z" stroke="#000000" stroke-linecap="round" stroke-linejoin="round" stroke-miterlimit="10"/><path d="M630.401 579.734 633.599 579.734 633.599 562.745 630.401 562.745Z" stroke="#000000" stroke-linecap="round" stroke-linejoin="round" stroke-miterlimit="10"/><path d="M633.599 579.734 636.797 579.734 636.797 494.797 633.599 494.797Z" stroke="#000000" stroke-linecap="round" stroke-linejoin="round" stroke-miterlimit="10"/><path d="M636.802 579.734 640 579.734 640 443.833 636.802 443.833Z" stroke="#000000" stroke-linecap="round" stroke-linejoin="round" stroke-miterlimit="10"/><path d="M640 579.734 643.198 579.734 643.198 477.807 640 477.807Z" stroke="#000000" stroke-linecap="round" stroke-linejoin="round" stroke-miterlimit="10"/><path d="M643.198 579.734 646.396 579.734 646.396 511.781 643.198 511.781Z" stroke="#000000" stroke-linecap="round" stroke-linejoin="round" stroke-miterlimit="10"/><path d="M646.401 579.734 649.599 579.734 649.599 443.833 646.401 443.833Z" stroke="#000000" stroke-linecap="round" stroke-linejoin="round" stroke-miterlimit="10"/><path d="M649.599 579.734 652.797 579.734 652.797 511.781 649.599 511.781Z" stroke="#000000" stroke-linecap="round" stroke-linejoin="round" stroke-miterlimit="10"/><path d="M652.802 579.734 656 579.734 656 511.781 652.802 511.781Z" stroke="#000000" stroke-linecap="round" stroke-linejoin="round" stroke-miterlimit="10"/><path d="M656 579.734 659.198 579.734 659.198 460.823 656 460.823Z" stroke="#000000" stroke-linecap="round" stroke-linejoin="round" stroke-miterlimit="10"/><path d="M659.198 579.734 662.396 579.734 662.396 562.745 659.198 562.745Z" stroke="#000000" stroke-linecap="round" stroke-linejoin="round" stroke-miterlimit="10"/><path d="M662.401 579.734 665.599 579.734 665.599 443.833 662.401 443.833Z" stroke="#000000" stroke-linecap="round" stroke-linejoin="round" stroke-miterlimit="10"/><path d="M665.599 579.734 668.797 579.734 668.797 562.745 665.599 562.745Z" stroke="#000000" stroke-linecap="round" stroke-linejoin="round" stroke-miterlimit="10"/><path d="M668.802 579.734 672 579.734 672 477.807 668.802 477.807Z" stroke="#000000" stroke-linecap="round" stroke-linejoin="round" stroke-miterlimit="10"/><path d="M672 579.734 675.198 579.734 675.198 494.797 672 494.797Z" stroke="#000000" stroke-linecap="round" stroke-linejoin="round" stroke-miterlimit="10"/><path d="M675.198 579.734 678.396 579.734 678.396 511.781 675.198 511.781Z" stroke="#000000" stroke-linecap="round" stroke-linejoin="round" stroke-miterlimit="10"/><path d="M678.401 579.734 681.599 579.734 681.599 528.771 678.401 528.771Z" stroke="#000000" stroke-linecap="round" stroke-linejoin="round" stroke-miterlimit="10"/><path d="M681.599 579.734 684.797 579.734 684.797 528.771 681.599 528.771Z" stroke="#000000" stroke-linecap="round" stroke-linejoin="round" stroke-miterlimit="10"/><path d="M684.802 579.734 688 579.734 688 511.781 684.802 511.781Z" stroke="#000000" stroke-linecap="round" stroke-linejoin="round" stroke-miterlimit="10"/><path d="M688 579.734 691.198 579.734Z" stroke="#000000" stroke-linecap="round" stroke-linejoin="round" stroke-miterlimit="10" fill="none"/><path d="M691.198 579.734 694.396 579.734 694.396 528.771 691.198 528.771Z" stroke="#000000" stroke-linecap="round" stroke-linejoin="round" stroke-miterlimit="10"/><path d="M694.401 579.734 697.599 579.734Z" stroke="#000000" stroke-linecap="round" stroke-linejoin="round" stroke-miterlimit="10" fill="none"/><path d="M697.599 579.734 700.797 579.734 700.797 528.771 697.599 528.771Z" stroke="#000000" stroke-linecap="round" stroke-linejoin="round" stroke-miterlimit="10"/><path d="M700.802 579.734 704 579.734 704 545.76 700.802 545.76Z" stroke="#000000" stroke-linecap="round" stroke-linejoin="round" stroke-miterlimit="10"/><path d="M704 579.734 707.198 579.734 707.198 562.745 704 562.745Z" stroke="#000000" stroke-linecap="round" stroke-linejoin="round" stroke-miterlimit="10"/><path d="M707.198 579.734 710.396 579.734 710.396 528.771 707.198 528.771Z" stroke="#000000" stroke-linecap="round" stroke-linejoin="round" stroke-miterlimit="10"/><path d="M710.401 579.734 713.599 579.734 713.599 545.76 710.401 545.76Z" stroke="#000000" stroke-linecap="round" stroke-linejoin="round" stroke-miterlimit="10"/><path d="M713.599 579.734 716.797 579.734 716.797 545.76 713.599 545.76Z" stroke="#000000" stroke-linecap="round" stroke-linejoin="round" stroke-miterlimit="10"/><path d="M716.802 579.734 720 579.734 720 562.745 716.802 562.745Z" stroke="#000000" stroke-linecap="round" stroke-linejoin="round" stroke-miterlimit="10"/><path d="M720 579.734 723.198 579.734 723.198 562.745 720 562.745Z" stroke="#000000" stroke-linecap="round" stroke-linejoin="round" stroke-miterlimit="10"/><path d="M723.198 579.734 726.396 579.734Z" stroke="#000000" stroke-linecap="round" stroke-linejoin="round" stroke-miterlimit="10" fill="none"/><path d="M726.401 579.734 729.599 579.734Z" stroke="#000000" stroke-linecap="round" stroke-linejoin="round" stroke-miterlimit="10" fill="none"/><path d="M729.599 579.734 732.797 579.734Z" stroke="#000000" stroke-linecap="round" stroke-linejoin="round" stroke-miterlimit="10" fill="none"/><path d="M732.802 579.734 736 579.734 736 562.745 732.802 562.745Z" stroke="#000000" stroke-linecap="round" stroke-linejoin="round" stroke-miterlimit="10"/><path d="M736 579.734 739.198 579.734Z" stroke="#000000" stroke-linecap="round" stroke-linejoin="round" stroke-miterlimit="10" fill="none"/><path d="M739.198 579.734 742.396 579.734Z" stroke="#000000" stroke-linecap="round" stroke-linejoin="round" stroke-miterlimit="10" fill="none"/><path d="M742.401 579.734 745.599 579.734Z" stroke="#000000" stroke-linecap="round" stroke-linejoin="round" stroke-miterlimit="10" fill="none"/><path d="M745.599 579.734 748.797 579.734Z" stroke="#000000" stroke-linecap="round" stroke-linejoin="round" stroke-miterlimit="10" fill="none"/><path d="M748.802 579.734 752 579.734Z" stroke="#000000" stroke-linecap="round" stroke-linejoin="round" stroke-miterlimit="10" fill="none"/><path d="M752 579.734 755.198 579.734Z" stroke="#000000" stroke-linecap="round" stroke-linejoin="round" stroke-miterlimit="10" fill="none"/><path d="M755.198 579.734 758.396 579.734Z" stroke="#000000" stroke-linecap="round" stroke-linejoin="round" stroke-miterlimit="10" fill="none"/><path d="M758.401 579.734 761.599 579.734Z" stroke="#000000" stroke-linecap="round" stroke-linejoin="round" stroke-miterlimit="10" fill="none"/><path d="M761.599 579.734 764.797 579.734 764.797 562.745 761.599 562.745Z" stroke="#000000" stroke-linecap="round" stroke-linejoin="round" stroke-miterlimit="10"/><g clip-path="url(#clip4)"><path d="M775.5 598.078 775.5 102.719" stroke="#FF0000" stroke-width="3" stroke-linecap="round" stroke-linejoin="round" stroke-miterlimit="10" fill="none"/></g></g></g></g><text font-family="Times New Roman,Times New Roman_MSFontService,sans-serif" font-weight="400" font-size="24" transform="translate(466.846 673)">Lasso regression</text></g></svg>