<svg width="674" height="673" xmlns="http://www.w3.org/2000/svg" xmlns:xlink="http://www.w3.org/1999/xlink" overflow="hidden"><defs><clipPath id="clip0"><rect x="-33" y="8" width="674" height="673"/></clipPath><clipPath id="clip1"><rect x="-32" y="9" width="672" height="672"/></clipPath><clipPath id="clip2"><rect x="-32" y="9" width="672" height="672"/></clipPath><clipPath id="clip3"><rect x="-32" y="9" width="672" height="672"/></clipPath><clipPath id="clip4"><rect x="549" y="87" width="5" height="497"/></clipPath></defs><g clip-path="url(#clip0)" transform="translate(33 -8)"><g clip-path="url(#clip1)"><g clip-path="url(#clip2)"><g clip-path="url(#clip3)"><path d="M-32 9 640 9 640 681-32 681Z" fill="#FFFFFF"/><path d="M316.094 51.9583 320.719 51.9583C322.302 51.9583 323.01 52.7292 323.01 54.4583L322.99 55.7083C322.99 56.5833 323.156 57.4167 323.406 58L325.573 58 325.573 57.5625C324.906 57.1042 324.76 56.6042 324.719 54.7292 324.719 52.4375 324.344 51.7292 322.823 51.0833 324.406 50.2917 325.031 49.3542 325.031 47.75 325.031 45.3125 323.531 44 320.781 44L314.323 44 314.323 58 316.094 58ZM316.094 50.3958 316.094 45.5625 320.427 45.5625C321.427 45.5625 322.01 45.7292 322.448 46.1042 322.927 46.5208 323.177 47.1458 323.177 47.9792 323.177 49.6458 322.323 50.3958 320.427 50.3958Z"/><path d="M333.188 47.2708 328.188 47.2708C328.312 46.4583 328.729 45.9583 329.896 45.2292L331.25 44.4792C332.583 43.75 333.271 42.75 333.271 41.5625 333.271 40.75 332.938 40 332.375 39.4792 331.812 38.9583 331.104 38.7292 330.208 38.7292 329 38.7292 328.104 39.1458 327.583 39.9792 327.25 40.5 327.104 41.1042 327.062 42.0833L328.25 42.0833C328.292 41.4167 328.375 41.0417 328.542 40.7083 328.833 40.125 329.458 39.75 330.167 39.75 331.25 39.75 332.062 40.5417 332.062 41.5833 332.062 42.3542 331.604 43.0417 330.771 43.5208L329.521 44.25C327.542 45.3958 326.958 46.2917 326.854 48.4167L333.188 48.4167Z"/><path d="M-20.0312 370.255-20.0312 364.693-21.3438 364.693-21.3438 370.255-25.0729 370.255-25.0729 363.922-26.3854 363.922-26.3854 371.755-14.7187 371.755-14.7187 370.255Z"/><path d="M-23.0938 362.313-14.7187 362.313-14.7187 360.958-19.0729 360.958C-21.0938 360.958-21.9896 360.125-21.9271 358.271L-23.3021 358.271C-23.3229 358.5-23.3438 358.625-23.3438 358.792-23.3438 359.667-22.8229 360.313-21.5729 361.083L-23.0938 361.083Z"/><path d="M-18.4688 349.88C-19.7396 349.88-20.5104 349.985-21.1354 350.214-22.5104 350.755-23.3438 352.047-23.3438 353.61-23.3438 355.943-21.5729 357.443-18.8021 357.443-16.0312 357.443-14.3437 356.005-14.3437 353.63-14.3437 351.714-15.4479 350.401-17.2604 350.047L-17.2604 351.401C-16.1562 351.776-15.5729 352.526-15.5729 353.589-15.5729 354.443-15.9687 355.151-16.6771 355.61-17.1562 355.922-17.6354 356.047-18.4688 356.047ZM-19.5521 356.026C-21.0938 355.922-22.1146 354.964-22.1146 353.63-22.1146 352.255-21.0521 351.318-19.5521 351.318Z"/><path d="M-11.2396 341.276-23.0938 341.276-23.0938 342.464-21.9896 342.464C-22.8646 343.089-23.3438 344.026-23.3438 345.13-23.3438 347.339-21.5312 348.776-18.7604 348.776-16.0312 348.776-14.3437 347.422-14.3437 345.193-14.3437 344.026-14.7604 343.234-15.6771 342.609L-11.2396 342.609ZM-22.0938 344.943C-22.0938 343.505-20.8229 342.609-18.8021 342.609-16.8854 342.609-15.5937 343.526-15.5937 344.943-15.5937 346.401-16.8854 347.38-18.8438 347.38-20.8021 347.38-22.0938 346.401-22.0938 344.943Z"/><path d="M-14.7187 332.588-23.0938 332.588-23.0938 333.922-18.3438 333.922C-16.6354 333.922-15.5104 334.818-15.5104 336.193-15.5104 337.255-16.1562 337.922-17.1771 337.922L-23.0938 337.922-23.0938 339.255-16.6354 339.255C-15.2396 339.255-14.3437 338.213-14.3437 336.588-14.3437 335.359-14.7812 334.568-15.8854 333.776L-14.7187 333.776Z"/><path d="M-18.4688 323.192C-19.7396 323.192-20.5104 323.297-21.1354 323.526-22.5104 324.067-23.3438 325.359-23.3438 326.922-23.3438 329.255-21.5729 330.755-18.8021 330.755-16.0312 330.755-14.3437 329.317-14.3437 326.942-14.3437 325.026-15.4479 323.713-17.2604 323.359L-17.2604 324.713C-16.1562 325.088-15.5729 325.838-15.5729 326.901-15.5729 327.755-15.9687 328.463-16.6771 328.922-17.1562 329.234-17.6354 329.359-18.4688 329.359ZM-19.5521 329.338C-21.0938 329.234-22.1146 328.276-22.1146 326.942-22.1146 325.567-21.0521 324.63-19.5521 324.63Z"/><path d="M-23.0938 321.38-14.7187 321.38-14.7187 320.046-19.3438 320.046C-21.0521 320.046-22.1771 319.151-22.1771 317.776-22.1771 316.713-21.5312 316.046-20.5312 316.046L-14.7187 316.046-14.7187 314.713-21.0521 314.713C-22.4479 314.713-23.3438 315.755-23.3438 317.359-23.3438 318.609-22.8646 319.421-21.6979 320.151L-23.0938 320.151Z"/><path d="M-20.2812 306.067C-21.0938 306.13-21.6354 306.317-22.0938 306.63-22.8854 307.213-23.3438 308.213-23.3438 309.38-23.3438 311.65-21.5521 313.109-18.7604 313.109-16.0729 313.109-14.3437 311.671-14.3437 309.4-14.3437 307.4-15.5521 306.13-17.5938 305.984L-17.5938 307.317C-16.2604 307.546-15.5729 308.234-15.5729 309.359-15.5729 310.838-16.7812 311.713-18.7604 311.713-20.8646 311.713-22.1146 310.859-22.1146 309.4-22.1146 308.275-21.4479 307.567-20.2812 307.421Z"/><path d="M-23.0938 299.4-16.5729 301.713-23.0938 303.859-23.0938 305.296-14.6771 302.463-13.3646 302.963C-12.7604 303.192-12.5521 303.484-12.5521 304.046-12.5521 304.255-12.5729 304.463-12.6354 304.755L-11.4479 304.755C-11.3021 304.463-11.2396 304.192-11.2396 303.859-11.2396 303.421-11.3646 302.963-11.6354 302.609-11.9271 302.192-12.2812 301.942-12.9687 301.692L-23.0938 297.963Z"/><path d="M67.1979 583.078 579.198 583.078" stroke="#000000" stroke-linecap="round" stroke-linejoin="round" stroke-miterlimit="10" fill="none"/><path d="M67.1979 583.078 67.1979 592.682" stroke="#000000" stroke-linecap="round" stroke-linejoin="round" stroke-miterlimit="10" fill="none"/><path d="M195.198 583.078 195.198 592.682" stroke="#000000" stroke-linecap="round" stroke-linejoin="round" stroke-miterlimit="10" fill="none"/><path d="M323.198 583.078 323.198 592.682" stroke="#000000" stroke-linecap="round" stroke-linejoin="round" stroke-miterlimit="10" fill="none"/><path d="M451.198 583.078 451.198 592.682" stroke="#000000" stroke-linecap="round" stroke-linejoin="round" stroke-miterlimit="10" fill="none"/><path d="M579.198 583.078 579.198 592.682" stroke="#000000" stroke-linecap="round" stroke-linejoin="round" stroke-miterlimit="10" fill="none"/><path d="M53.5052 612.641 49.6927 612.641 49.6927 613.807 53.5052 613.807Z"/><path d="M58.6874 606.078C57.6457 606.078 56.6665 606.557 56.0832 607.328 55.354 608.37 54.979 609.891 54.979 612.036 54.979 615.953 56.2499 618.016 58.6874 618.016 61.0832 618.016 62.3957 615.953 62.3957 612.141 62.3957 609.891 62.0415 608.391 61.2915 607.328 60.7082 606.536 59.7707 606.078 58.6874 606.078ZM58.6874 607.328C60.2082 607.328 60.9582 608.87 60.9582 612.016 60.9582 615.307 60.229 616.849 58.6665 616.849 57.1665 616.849 56.4165 615.245 56.4165 612.057 56.4165 608.87 57.1665 607.328 58.6874 607.328Z"/><path d="M66.25 615.974 64.5834 615.974 64.5834 617.641 66.25 617.641Z"/><path d="M72.0314 606.078C70.9897 606.078 70.0105 606.557 69.4272 607.328 68.698 608.37 68.323 609.891 68.323 612.036 68.323 615.953 69.5939 618.016 72.0314 618.016 74.4272 618.016 75.7397 615.953 75.7397 612.141 75.7397 609.891 75.3855 608.391 74.6355 607.328 74.0522 606.536 73.1147 606.078 72.0314 606.078ZM72.0314 607.328C73.5522 607.328 74.3022 608.87 74.3022 612.016 74.3022 615.307 73.573 616.849 72.0105 616.849 70.5105 616.849 69.7605 615.245 69.7605 612.057 69.7605 608.87 70.5105 607.328 72.0314 607.328Z"/><path d="M81.7607 614.849 81.7607 617.641 83.1774 617.641 83.1774 614.849 84.844 614.849 84.844 613.578 83.1774 613.578 83.1774 606.078 82.1357 606.078 76.9899 613.349 76.9899 614.849ZM81.7607 613.578 78.219 613.578 81.7607 608.474Z"/><path d="M181.505 612.641 177.693 612.641 177.693 613.807 181.505 613.807Z"/><path d="M186.687 606.078C185.646 606.078 184.667 606.557 184.083 607.328 183.354 608.37 182.979 609.891 182.979 612.036 182.979 615.953 184.25 618.016 186.687 618.016 189.083 618.016 190.396 615.953 190.396 612.141 190.396 609.891 190.042 608.391 189.292 607.328 188.708 606.536 187.771 606.078 186.687 606.078ZM186.687 607.328C188.208 607.328 188.958 608.87 188.958 612.016 188.958 615.307 188.229 616.849 186.667 616.849 185.167 616.849 184.417 615.245 184.417 612.057 184.417 608.87 185.167 607.328 186.687 607.328Z"/><path d="M194.25 615.974 192.583 615.974 192.583 617.641 194.25 617.641Z"/><path d="M200.031 606.078C198.99 606.078 198.011 606.557 197.427 607.328 196.698 608.37 196.323 609.891 196.323 612.036 196.323 615.953 197.594 618.016 200.031 618.016 202.427 618.016 203.74 615.953 203.74 612.141 203.74 609.891 203.386 608.391 202.636 607.328 202.052 606.536 201.115 606.078 200.031 606.078ZM200.031 607.328C201.552 607.328 202.302 608.87 202.302 612.016 202.302 615.307 201.573 616.849 200.011 616.849 198.511 616.849 197.761 615.245 197.761 612.057 197.761 608.87 198.511 607.328 200.031 607.328Z"/><path d="M212.636 616.245 206.657 616.245C206.802 615.286 207.323 614.682 208.698 613.828L210.302 612.932C211.886 612.057 212.698 610.87 212.698 609.453 212.698 608.495 212.323 607.599 211.657 606.974 210.99 606.37 210.157 606.078 209.073 606.078 207.636 606.078 206.573 606.578 205.948 607.578 205.532 608.182 205.365 608.911 205.323 610.078L206.74 610.078C206.782 609.286 206.886 608.828 207.073 608.432 207.448 607.745 208.177 607.307 209.032 607.307 210.302 607.307 211.261 608.224 211.261 609.474 211.261 610.411 210.74 611.203 209.74 611.786L208.261 612.641C205.886 614.016 205.198 615.099 205.073 617.62L212.636 617.62Z"/><path d="M312.026 606.078C310.984 606.078 310.005 606.557 309.422 607.328 308.693 608.37 308.318 609.891 308.318 612.036 308.318 615.953 309.589 618.016 312.026 618.016 314.422 618.016 315.734 615.953 315.734 612.141 315.734 609.891 315.38 608.391 314.63 607.328 314.047 606.536 313.109 606.078 312.026 606.078ZM312.026 607.328C313.547 607.328 314.297 608.87 314.297 612.016 314.297 615.307 313.568 616.849 312.005 616.849 310.505 616.849 309.755 615.245 309.755 612.057 309.755 608.87 310.505 607.328 312.026 607.328Z"/><path d="M319.589 615.974 317.922 615.974 317.922 617.641 319.589 617.641Z"/><path d="M325.37 606.078C324.328 606.078 323.349 606.557 322.766 607.328 322.037 608.37 321.662 609.891 321.662 612.036 321.662 615.953 322.933 618.016 325.37 618.016 327.766 618.016 329.078 615.953 329.078 612.141 329.078 609.891 328.724 608.391 327.974 607.328 327.391 606.536 326.453 606.078 325.37 606.078ZM325.37 607.328C326.891 607.328 327.641 608.87 327.641 612.016 327.641 615.307 326.912 616.849 325.349 616.849 323.849 616.849 323.099 615.245 323.099 612.057 323.099 608.87 323.849 607.328 325.37 607.328Z"/><path d="M334.266 606.078C333.224 606.078 332.245 606.557 331.662 607.328 330.933 608.37 330.558 609.891 330.558 612.036 330.558 615.953 331.829 618.016 334.266 618.016 336.662 618.016 337.974 615.953 337.974 612.141 337.974 609.891 337.62 608.391 336.87 607.328 336.287 606.536 335.349 606.078 334.266 606.078ZM334.266 607.328C335.787 607.328 336.537 608.87 336.537 612.016 336.537 615.307 335.808 616.849 334.245 616.849 332.745 616.849 331.995 615.245 331.995 612.057 331.995 608.87 332.745 607.328 334.266 607.328Z"/><path d="M440.026 606.078C438.984 606.078 438.005 606.557 437.422 607.328 436.693 608.37 436.318 609.891 436.318 612.036 436.318 615.953 437.589 618.016 440.026 618.016 442.422 618.016 443.734 615.953 443.734 612.141 443.734 609.891 443.38 608.391 442.63 607.328 442.047 606.536 441.109 606.078 440.026 606.078ZM440.026 607.328C441.547 607.328 442.297 608.87 442.297 612.016 442.297 615.307 441.568 616.849 440.005 616.849 438.505 616.849 437.755 615.245 437.755 612.057 437.755 608.87 438.505 607.328 440.026 607.328Z"/><path d="M447.589 615.974 445.922 615.974 445.922 617.641 447.589 617.641Z"/><path d="M453.37 606.078C452.328 606.078 451.349 606.557 450.766 607.328 450.037 608.37 449.662 609.891 449.662 612.036 449.662 615.953 450.933 618.016 453.37 618.016 455.766 618.016 457.078 615.953 457.078 612.141 457.078 609.891 456.724 608.391 455.974 607.328 455.391 606.536 454.453 606.078 453.37 606.078ZM453.37 607.328C454.891 607.328 455.641 608.87 455.641 612.016 455.641 615.307 454.912 616.849 453.349 616.849 451.849 616.849 451.099 615.245 451.099 612.057 451.099 608.87 451.849 607.328 453.37 607.328Z"/><path d="M465.974 616.245 459.995 616.245C460.141 615.286 460.662 614.682 462.037 613.828L463.641 612.932C465.224 612.057 466.037 610.87 466.037 609.453 466.037 608.495 465.662 607.599 464.995 606.974 464.329 606.37 463.495 606.078 462.412 606.078 460.974 606.078 459.912 606.578 459.287 607.578 458.87 608.182 458.704 608.911 458.662 610.078L460.079 610.078C460.12 609.286 460.224 608.828 460.412 608.432 460.787 607.745 461.516 607.307 462.37 607.307 463.641 607.307 464.599 608.224 464.599 609.474 464.599 610.411 464.079 611.203 463.079 611.786L461.599 612.641C459.224 614.016 458.537 615.099 458.412 617.62L465.974 617.62Z"/><path d="M568.026 606.078C566.984 606.078 566.005 606.557 565.422 607.328 564.693 608.37 564.318 609.891 564.318 612.036 564.318 615.953 565.589 618.016 568.026 618.016 570.422 618.016 571.734 615.953 571.734 612.141 571.734 609.891 571.38 608.391 570.63 607.328 570.047 606.536 569.109 606.078 568.026 606.078ZM568.026 607.328C569.547 607.328 570.297 608.87 570.297 612.016 570.297 615.307 569.568 616.849 568.005 616.849 566.505 616.849 565.755 615.245 565.755 612.057 565.755 608.87 566.505 607.328 568.026 607.328Z"/><path d="M575.589 615.974 573.922 615.974 573.922 617.641 575.589 617.641Z"/><path d="M581.37 606.078C580.328 606.078 579.349 606.557 578.766 607.328 578.037 608.37 577.662 609.891 577.662 612.036 577.662 615.953 578.932 618.016 581.37 618.016 583.766 618.016 585.078 615.953 585.078 612.141 585.078 609.891 584.724 608.391 583.974 607.328 583.391 606.536 582.453 606.078 581.37 606.078ZM581.37 607.328C582.891 607.328 583.641 608.87 583.641 612.016 583.641 615.307 582.912 616.849 581.349 616.849 579.849 616.849 579.099 615.245 579.099 612.057 579.099 608.87 579.849 607.328 581.37 607.328Z"/><path d="M591.099 614.849 591.099 617.641 592.516 617.641 592.516 614.849 594.183 614.849 594.183 613.578 592.516 613.578 592.516 606.078 591.474 606.078 586.328 613.349 586.328 614.849ZM591.099 613.578 587.558 613.578 591.099 608.474Z"/><path d="M46.7188 564.734 46.7188 140.042" stroke="#000000" stroke-linecap="round" stroke-linejoin="round" stroke-miterlimit="10" fill="none"/><path d="M46.7188 564.734 37.1198 564.734" stroke="#000000" stroke-linecap="round" stroke-linejoin="round" stroke-miterlimit="10" fill="none"/><path d="M46.7188 479.797 37.1198 479.797" stroke="#000000" stroke-linecap="round" stroke-linejoin="round" stroke-miterlimit="10" fill="none"/><path d="M46.7188 394.859 37.1198 394.859" stroke="#000000" stroke-linecap="round" stroke-linejoin="round" stroke-miterlimit="10" fill="none"/><path d="M46.7188 309.917 37.1198 309.917" stroke="#000000" stroke-linecap="round" stroke-linejoin="round" stroke-miterlimit="10" fill="none"/><path d="M46.7188 224.979 37.1198 224.979" stroke="#000000" stroke-linecap="round" stroke-linejoin="round" stroke-miterlimit="10" fill="none"/><path d="M46.7188 140.042 37.1198 140.042" stroke="#000000" stroke-linecap="round" stroke-linejoin="round" stroke-miterlimit="10" fill="none"/><path d="M12.1198 564.786C12.1198 565.828 12.599 566.807 13.3698 567.391 14.4115 568.12 15.9323 568.495 18.0781 568.495 21.9948 568.495 24.0573 567.224 24.0573 564.786 24.0573 562.391 21.9948 561.078 18.1823 561.078 15.9323 561.078 14.4323 561.432 13.3698 562.182 12.5781 562.766 12.1198 563.703 12.1198 564.786ZM13.3698 564.786C13.3698 563.266 14.9115 562.516 18.0573 562.516 21.349 562.516 22.8906 563.245 22.8906 564.807 22.8906 566.307 21.2865 567.057 18.099 567.057 14.9115 567.057 13.3698 566.307 13.3698 564.786Z"/><path d="M12.3281 476.62 12.3281 482.495 18.5156 483.328 18.5156 482.036C17.724 481.391 17.4531 480.828 17.4531 479.932 17.4531 478.411 18.4948 477.474 20.1823 477.474 21.8073 477.474 22.8073 478.411 22.8073 479.953 22.8073 481.182 22.1823 481.932 20.8906 482.286L20.8906 483.682C21.8281 483.495 22.2656 483.328 22.6823 482.995 23.5573 482.349 24.0573 481.203 24.0573 479.932 24.0573 477.641 22.3906 476.036 19.9948 476.036 17.7448 476.036 16.2031 477.516 16.2031 479.703 16.2031 480.495 16.4115 481.141 16.8906 481.786L13.724 481.349 13.724 476.62Z"/><path d="M15.4323 399.609 23.6823 399.609 23.6823 398.214 12.1198 398.214 12.1198 399.13C13.8906 399.63 14.1406 399.943 14.4115 402.13L15.4323 402.13Z"/><path d="M12.1198 390.463C12.1198 391.505 12.599 392.484 13.3698 393.068 14.4115 393.797 15.9323 394.172 18.0781 394.172 21.9948 394.172 24.0573 392.901 24.0573 390.463 24.0573 388.068 21.9948 386.755 18.1823 386.755 15.9323 386.755 14.4323 387.109 13.3698 387.859 12.5781 388.443 12.1198 389.38 12.1198 390.463ZM13.3698 390.463C13.3698 388.943 14.9115 388.193 18.0573 388.193 21.349 388.193 22.8906 388.922 22.8906 390.484 22.8906 391.984 21.2865 392.734 18.099 392.734 14.9115 392.734 13.3698 391.984 13.3698 390.463Z"/><path d="M15.4323 314.667 23.6823 314.667 23.6823 313.271 12.1198 313.271 12.1198 314.188C13.8906 314.688 14.1406 315 14.4115 317.188L15.4323 317.188Z"/><path d="M12.3281 302.292 12.3281 308.167 18.5156 309 18.5156 307.708C17.724 307.062 17.4531 306.5 17.4531 305.604 17.4531 304.083 18.4948 303.146 20.1823 303.146 21.8073 303.146 22.8073 304.083 22.8073 305.625 22.8073 306.854 22.1823 307.604 20.8906 307.958L20.8906 309.354C21.8281 309.167 22.2656 309 22.6823 308.667 23.5573 308.021 24.0573 306.875 24.0573 305.604 24.0573 303.312 22.3906 301.708 19.9948 301.708 17.7448 301.708 16.2031 303.187 16.2031 305.375 16.2031 306.167 16.4115 306.812 16.8906 307.458L13.724 307.021 13.724 302.292Z"/><path d="M22.2865 225.771 22.2865 231.75C21.3281 231.604 20.724 231.083 19.8698 229.708L18.974 228.104C18.099 226.521 16.9115 225.708 15.4948 225.708 14.5365 225.708 13.6406 226.083 13.0156 226.75 12.4115 227.417 12.1198 228.25 12.1198 229.333 12.1198 230.771 12.6198 231.833 13.6198 232.458 14.224 232.875 14.9531 233.042 16.1198 233.083L16.1198 231.667C15.3281 231.625 14.8698 231.521 14.474 231.333 13.7865 230.958 13.349 230.229 13.349 229.375 13.349 228.104 14.2656 227.146 15.5156 227.146 16.4531 227.146 17.2448 227.667 17.8281 228.667L18.6823 230.146C20.0573 232.521 21.1406 233.208 23.6615 233.333L23.6615 225.771Z"/><path d="M12.1198 220.583C12.1198 221.625 12.599 222.604 13.3698 223.187 14.4115 223.917 15.9323 224.292 18.0781 224.292 21.9948 224.292 24.0573 223.021 24.0573 220.583 24.0573 218.187 21.9948 216.875 18.1823 216.875 15.9323 216.875 14.4323 217.229 13.3698 217.979 12.5781 218.562 12.1198 219.5 12.1198 220.583ZM13.3698 220.583C13.3698 219.062 14.9115 218.312 18.0573 218.312 21.349 218.312 22.8906 219.042 22.8906 220.604 22.8906 222.104 21.2865 222.854 18.099 222.854 14.9115 222.854 13.3698 222.104 13.3698 220.583Z"/><path d="M22.2865 140.833 22.2865 146.812C21.3281 146.667 20.724 146.146 19.8698 144.771L18.974 143.167C18.099 141.583 16.9115 140.771 15.4948 140.771 14.5365 140.771 13.6406 141.146 13.0156 141.812 12.4115 142.479 12.1198 143.312 12.1198 144.396 12.1198 145.833 12.6198 146.896 13.6198 147.521 14.224 147.938 14.9531 148.104 16.1198 148.146L16.1198 146.729C15.3281 146.688 14.8698 146.583 14.474 146.396 13.7865 146.021 13.349 145.292 13.349 144.438 13.349 143.167 14.2656 142.208 15.5156 142.208 16.4531 142.208 17.2448 142.729 17.8281 143.729L18.6823 145.208C20.0573 147.583 21.1406 148.271 23.6615 148.396L23.6615 140.833Z"/><path d="M12.3281 132.417 12.3281 138.292 18.5156 139.125 18.5156 137.833C17.724 137.187 17.4531 136.625 17.4531 135.729 17.4531 134.208 18.4948 133.271 20.1823 133.271 21.8073 133.271 22.8073 134.208 22.8073 135.75 22.8073 136.979 22.1823 137.729 20.8906 138.083L20.8906 139.479C21.8281 139.292 22.2656 139.125 22.6823 138.792 23.5573 138.146 24.0573 137 24.0573 135.729 24.0573 133.437 22.3906 131.833 19.9948 131.833 17.7448 131.833 16.2031 133.312 16.2031 135.5 16.2031 136.292 16.4115 136.937 16.8906 137.583L13.724 137.146 13.724 132.417Z"/><path d="M108.802 564.734 112 564.734 112 547.745 108.802 547.745Z" stroke="#000000" stroke-linecap="round" stroke-linejoin="round" stroke-miterlimit="10"/><path d="M112 564.734 115.198 564.734 115.198 547.745 112 547.745Z" stroke="#000000" stroke-linecap="round" stroke-linejoin="round" stroke-miterlimit="10"/><path d="M115.198 564.734 118.396 564.734Z" stroke="#000000" stroke-linecap="round" stroke-linejoin="round" stroke-miterlimit="10" fill="none"/><path d="M118.401 564.734 121.599 564.734Z" stroke="#000000" stroke-linecap="round" stroke-linejoin="round" stroke-miterlimit="10" fill="none"/><path d="M121.599 564.734 124.797 564.734 124.797 530.76 121.599 530.76Z" stroke="#000000" stroke-linecap="round" stroke-linejoin="round" stroke-miterlimit="10"/><path d="M124.802 564.734 128 564.734Z" stroke="#000000" stroke-linecap="round" stroke-linejoin="round" stroke-miterlimit="10" fill="none"/><path d="M128 564.734 131.198 564.734 131.198 547.745 128 547.745Z" stroke="#000000" stroke-linecap="round" stroke-linejoin="round" stroke-miterlimit="10"/><path d="M131.198 564.734 134.396 564.734Z" stroke="#000000" stroke-linecap="round" stroke-linejoin="round" stroke-miterlimit="10" fill="none"/><path d="M134.401 564.734 137.599 564.734 137.599 547.745 134.401 547.745Z" stroke="#000000" stroke-linecap="round" stroke-linejoin="round" stroke-miterlimit="10"/><path d="M137.599 564.734 140.797 564.734Z" stroke="#000000" stroke-linecap="round" stroke-linejoin="round" stroke-miterlimit="10" fill="none"/><path d="M140.802 564.734 144 564.734Z" stroke="#000000" stroke-linecap="round" stroke-linejoin="round" stroke-miterlimit="10" fill="none"/><path d="M144 564.734 147.198 564.734Z" stroke="#000000" stroke-linecap="round" stroke-linejoin="round" stroke-miterlimit="10" fill="none"/><path d="M147.198 564.734 150.396 564.734 150.396 547.745 147.198 547.745Z" stroke="#000000" stroke-linecap="round" stroke-linejoin="round" stroke-miterlimit="10"/><path d="M150.401 564.734 153.599 564.734 153.599 530.76 150.401 530.76Z" stroke="#000000" stroke-linecap="round" stroke-linejoin="round" stroke-miterlimit="10"/><path d="M153.599 564.734 156.797 564.734 156.797 547.745 153.599 547.745Z" stroke="#000000" stroke-linecap="round" stroke-linejoin="round" stroke-miterlimit="10"/><path d="M156.802 564.734 160 564.734Z" stroke="#000000" stroke-linecap="round" stroke-linejoin="round" stroke-miterlimit="10" fill="none"/><path d="M160 564.734 163.198 564.734 163.198 547.745 160 547.745Z" stroke="#000000" stroke-linecap="round" stroke-linejoin="round" stroke-miterlimit="10"/><path d="M163.198 564.734 166.396 564.734 166.396 547.745 163.198 547.745Z" stroke="#000000" stroke-linecap="round" stroke-linejoin="round" stroke-miterlimit="10"/><path d="M166.401 564.734 169.599 564.734 169.599 479.797 166.401 479.797Z" stroke="#000000" stroke-linecap="round" stroke-linejoin="round" stroke-miterlimit="10"/><path d="M169.599 564.734 172.797 564.734 172.797 530.76 169.599 530.76Z" stroke="#000000" stroke-linecap="round" stroke-linejoin="round" stroke-miterlimit="10"/><path d="M172.802 564.734 176 564.734 176 513.771 172.802 513.771Z" stroke="#000000" stroke-linecap="round" stroke-linejoin="round" stroke-miterlimit="10"/><path d="M176 564.734 179.198 564.734 179.198 479.797 176 479.797Z" stroke="#000000" stroke-linecap="round" stroke-linejoin="round" stroke-miterlimit="10"/><path d="M179.198 564.734 182.396 564.734 182.396 496.781 179.198 496.781Z" stroke="#000000" stroke-linecap="round" stroke-linejoin="round" stroke-miterlimit="10"/><path d="M182.401 564.734 185.599 564.734 185.599 513.771 182.401 513.771Z" stroke="#000000" stroke-linecap="round" stroke-linejoin="round" stroke-miterlimit="10"/><path d="M185.599 564.734 188.797 564.734 188.797 513.771 185.599 513.771Z" stroke="#000000" stroke-linecap="round" stroke-linejoin="round" stroke-miterlimit="10"/><path d="M188.802 564.734 192 564.734 192 530.76 188.802 530.76Z" stroke="#000000" stroke-linecap="round" stroke-linejoin="round" stroke-miterlimit="10"/><path d="M192 564.734 195.198 564.734Z" stroke="#000000" stroke-linecap="round" stroke-linejoin="round" stroke-miterlimit="10" fill="none"/><path d="M195.198 564.734 198.396 564.734 198.396 513.771 195.198 513.771Z" stroke="#000000" stroke-linecap="round" stroke-linejoin="round" stroke-miterlimit="10"/><path d="M198.401 564.734 201.599 564.734 201.599 513.771 198.401 513.771Z" stroke="#000000" stroke-linecap="round" stroke-linejoin="round" stroke-miterlimit="10"/><path d="M201.599 564.734 204.797 564.734 204.797 479.797 201.599 479.797Z" stroke="#000000" stroke-linecap="round" stroke-linejoin="round" stroke-miterlimit="10"/><path d="M204.802 564.734 208 564.734 208 462.807 204.802 462.807Z" stroke="#000000" stroke-linecap="round" stroke-linejoin="round" stroke-miterlimit="10"/><path d="M208 564.734 211.198 564.734 211.198 547.745 208 547.745Z" stroke="#000000" stroke-linecap="round" stroke-linejoin="round" stroke-miterlimit="10"/><path d="M211.198 564.734 214.396 564.734 214.396 513.771 211.198 513.771Z" stroke="#000000" stroke-linecap="round" stroke-linejoin="round" stroke-miterlimit="10"/><path d="M214.401 564.734 217.599 564.734 217.599 513.771 214.401 513.771Z" stroke="#000000" stroke-linecap="round" stroke-linejoin="round" stroke-miterlimit="10"/><path d="M217.599 564.734 220.797 564.734 220.797 462.807 217.599 462.807Z" stroke="#000000" stroke-linecap="round" stroke-linejoin="round" stroke-miterlimit="10"/><path d="M220.802 564.734 224 564.734 224 513.771 220.802 513.771Z" stroke="#000000" stroke-linecap="round" stroke-linejoin="round" stroke-miterlimit="10"/><path d="M224 564.734 227.198 564.734 227.198 445.823 224 445.823Z" stroke="#000000" stroke-linecap="round" stroke-linejoin="round" stroke-miterlimit="10"/><path d="M227.198 564.734 230.396 564.734 230.396 377.87 227.198 377.87Z" stroke="#000000" stroke-linecap="round" stroke-linejoin="round" stroke-miterlimit="10"/><path d="M230.401 564.734 233.599 564.734 233.599 513.771 230.401 513.771Z" stroke="#000000" stroke-linecap="round" stroke-linejoin="round" stroke-miterlimit="10"/><path d="M233.599 564.734 236.797 564.734 236.797 360.88 233.599 360.88Z" stroke="#000000" stroke-linecap="round" stroke-linejoin="round" stroke-miterlimit="10"/><path d="M236.802 564.734 240 564.734 240 394.859 236.802 394.859Z" stroke="#000000" stroke-linecap="round" stroke-linejoin="round" stroke-miterlimit="10"/><path d="M240 564.734 243.198 564.734 243.198 241.969 240 241.969Z" stroke="#000000" stroke-linecap="round" stroke-linejoin="round" stroke-miterlimit="10"/><path d="M243.198 564.734 246.396 564.734 246.396 360.88 243.198 360.88Z" stroke="#000000" stroke-linecap="round" stroke-linejoin="round" stroke-miterlimit="10"/><path d="M246.401 564.734 249.599 564.734 249.599 479.797 246.401 479.797Z" stroke="#000000" stroke-linecap="round" stroke-linejoin="round" stroke-miterlimit="10"/><path d="M249.599 564.734 252.797 564.734 252.797 411.844 249.599 411.844Z" stroke="#000000" stroke-linecap="round" stroke-linejoin="round" stroke-miterlimit="10"/><path d="M252.802 564.734 256 564.734 256 377.87 252.802 377.87Z" stroke="#000000" stroke-linecap="round" stroke-linejoin="round" stroke-miterlimit="10"/><path d="M256 564.734 259.198 564.734 259.198 394.859 256 394.859Z" stroke="#000000" stroke-linecap="round" stroke-linejoin="round" stroke-miterlimit="10"/><path d="M259.198 564.734 262.396 564.734 262.396 343.896 259.198 343.896Z" stroke="#000000" stroke-linecap="round" stroke-linejoin="round" stroke-miterlimit="10"/><path d="M262.401 564.734 265.599 564.734 265.599 445.823 262.401 445.823Z" stroke="#000000" stroke-linecap="round" stroke-linejoin="round" stroke-miterlimit="10"/><path d="M265.599 564.734 268.797 564.734 268.797 326.906 265.599 326.906Z" stroke="#000000" stroke-linecap="round" stroke-linejoin="round" stroke-miterlimit="10"/><path d="M268.802 564.734 272 564.734 272 292.932 268.802 292.932Z" stroke="#000000" stroke-linecap="round" stroke-linejoin="round" stroke-miterlimit="10"/><path d="M272 564.734 275.198 564.734 275.198 360.88 272 360.88Z" stroke="#000000" stroke-linecap="round" stroke-linejoin="round" stroke-miterlimit="10"/><path d="M275.198 564.734 278.396 564.734 278.396 326.906 275.198 326.906Z" stroke="#000000" stroke-linecap="round" stroke-linejoin="round" stroke-miterlimit="10"/><path d="M278.401 564.734 281.599 564.734 281.599 309.922 278.401 309.922Z" stroke="#000000" stroke-linecap="round" stroke-linejoin="round" stroke-miterlimit="10"/><path d="M281.599 564.734 284.797 564.734 284.797 394.859 281.599 394.859Z" stroke="#000000" stroke-linecap="round" stroke-linejoin="round" stroke-miterlimit="10"/><path d="M284.802 564.734 288 564.734 288 326.906 284.802 326.906Z" stroke="#000000" stroke-linecap="round" stroke-linejoin="round" stroke-miterlimit="10"/><path d="M288 564.734 291.198 564.734 291.198 224.979 288 224.979Z" stroke="#000000" stroke-linecap="round" stroke-linejoin="round" stroke-miterlimit="10"/><path d="M291.198 564.734 294.396 564.734 294.396 326.906 291.198 326.906Z" stroke="#000000" stroke-linecap="round" stroke-linejoin="round" stroke-miterlimit="10"/><path d="M294.401 564.734 297.599 564.734 297.599 326.906 294.401 326.906Z" stroke="#000000" stroke-linecap="round" stroke-linejoin="round" stroke-miterlimit="10"/><path d="M297.599 564.734 300.797 564.734 300.797 258.958 297.599 258.958Z" stroke="#000000" stroke-linecap="round" stroke-linejoin="round" stroke-miterlimit="10"/><path d="M300.802 564.734 304 564.734 304 207.995 300.802 207.995Z" stroke="#000000" stroke-linecap="round" stroke-linejoin="round" stroke-miterlimit="10"/><path d="M304 564.734 307.198 564.734 307.198 309.922 304 309.922Z" stroke="#000000" stroke-linecap="round" stroke-linejoin="round" stroke-miterlimit="10"/><path d="M307.198 564.734 310.396 564.734 310.396 191.005 307.198 191.005Z" stroke="#000000" stroke-linecap="round" stroke-linejoin="round" stroke-miterlimit="10"/><path d="M310.401 564.734 313.599 564.734 313.599 207.995 310.401 207.995Z" stroke="#000000" stroke-linecap="round" stroke-linejoin="round" stroke-miterlimit="10"/><path d="M313.599 564.734 316.797 564.734 316.797 360.88 313.599 360.88Z" stroke="#000000" stroke-linecap="round" stroke-linejoin="round" stroke-miterlimit="10"/><path d="M316.802 564.734 320 564.734 320 123.057 316.802 123.057Z" stroke="#000000" stroke-linecap="round" stroke-linejoin="round" stroke-miterlimit="10"/><path d="M320 564.734 323.198 564.734 323.198 241.969 320 241.969Z" stroke="#000000" stroke-linecap="round" stroke-linejoin="round" stroke-miterlimit="10"/><path d="M323.198 564.734 326.396 564.734 326.396 258.958 323.198 258.958Z" stroke="#000000" stroke-linecap="round" stroke-linejoin="round" stroke-miterlimit="10"/><path d="M326.401 564.734 329.599 564.734 329.599 207.995 326.401 207.995Z" stroke="#000000" stroke-linecap="round" stroke-linejoin="round" stroke-miterlimit="10"/><path d="M329.599 564.734 332.797 564.734 332.797 157.031 329.599 157.031Z" stroke="#000000" stroke-linecap="round" stroke-linejoin="round" stroke-miterlimit="10"/><path d="M332.802 564.734 336 564.734 336 191.005 332.802 191.005Z" stroke="#000000" stroke-linecap="round" stroke-linejoin="round" stroke-miterlimit="10"/><path d="M336 564.734 339.198 564.734 339.198 258.958 336 258.958Z" stroke="#000000" stroke-linecap="round" stroke-linejoin="round" stroke-miterlimit="10"/><path d="M339.198 564.734 342.396 564.734 342.396 258.958 339.198 258.958Z" stroke="#000000" stroke-linecap="round" stroke-linejoin="round" stroke-miterlimit="10"/><path d="M342.401 564.734 345.599 564.734 345.599 241.969 342.401 241.969Z" stroke="#000000" stroke-linecap="round" stroke-linejoin="round" stroke-miterlimit="10"/><path d="M345.599 564.734 348.797 564.734 348.797 258.958 345.599 258.958Z" stroke="#000000" stroke-linecap="round" stroke-linejoin="round" stroke-miterlimit="10"/><path d="M348.802 564.734 352 564.734 352 106.068 348.802 106.068Z" stroke="#000000" stroke-linecap="round" stroke-linejoin="round" stroke-miterlimit="10"/><path d="M352 564.734 355.198 564.734 355.198 140.042 352 140.042Z" stroke="#000000" stroke-linecap="round" stroke-linejoin="round" stroke-miterlimit="10"/><path d="M355.198 564.734 358.396 564.734 358.396 241.969 355.198 241.969Z" stroke="#000000" stroke-linecap="round" stroke-linejoin="round" stroke-miterlimit="10"/><path d="M358.401 564.734 361.599 564.734 361.599 360.88 358.401 360.88Z" stroke="#000000" stroke-linecap="round" stroke-linejoin="round" stroke-miterlimit="10"/><path d="M361.599 564.734 364.797 564.734 364.797 343.896 361.599 343.896Z" stroke="#000000" stroke-linecap="round" stroke-linejoin="round" stroke-miterlimit="10"/><path d="M364.802 564.734 368 564.734 368 377.87 364.802 377.87Z" stroke="#000000" stroke-linecap="round" stroke-linejoin="round" stroke-miterlimit="10"/><path d="M368 564.734 371.198 564.734 371.198 377.87 368 377.87Z" stroke="#000000" stroke-linecap="round" stroke-linejoin="round" stroke-miterlimit="10"/><path d="M371.198 564.734 374.396 564.734 374.396 224.979 371.198 224.979Z" stroke="#000000" stroke-linecap="round" stroke-linejoin="round" stroke-miterlimit="10"/><path d="M374.401 564.734 377.599 564.734 377.599 292.932 374.401 292.932Z" stroke="#000000" stroke-linecap="round" stroke-linejoin="round" stroke-miterlimit="10"/><path d="M377.599 564.734 380.797 564.734 380.797 411.844 377.599 411.844Z" stroke="#000000" stroke-linecap="round" stroke-linejoin="round" stroke-miterlimit="10"/><path d="M380.802 564.734 384 564.734 384 360.88 380.802 360.88Z" stroke="#000000" stroke-linecap="round" stroke-linejoin="round" stroke-miterlimit="10"/><path d="M384 564.734 387.198 564.734 387.198 394.859 384 394.859Z" stroke="#000000" stroke-linecap="round" stroke-linejoin="round" stroke-miterlimit="10"/><path d="M387.198 564.734 390.396 564.734 390.396 309.922 387.198 309.922Z" stroke="#000000" stroke-linecap="round" stroke-linejoin="round" stroke-miterlimit="10"/><path d="M390.401 564.734 393.599 564.734 393.599 309.922 390.401 309.922Z" stroke="#000000" stroke-linecap="round" stroke-linejoin="round" stroke-miterlimit="10"/><path d="M393.599 564.734 396.797 564.734 396.797 462.807 393.599 462.807Z" stroke="#000000" stroke-linecap="round" stroke-linejoin="round" stroke-miterlimit="10"/><path d="M396.802 564.734 400 564.734 400 377.87 396.802 377.87Z" stroke="#000000" stroke-linecap="round" stroke-linejoin="round" stroke-miterlimit="10"/><path d="M400 564.734 403.198 564.734 403.198 496.781 400 496.781Z" stroke="#000000" stroke-linecap="round" stroke-linejoin="round" stroke-miterlimit="10"/><path d="M403.198 564.734 406.396 564.734 406.396 462.807 403.198 462.807Z" stroke="#000000" stroke-linecap="round" stroke-linejoin="round" stroke-miterlimit="10"/><path d="M406.401 564.734 409.599 564.734 409.599 547.745 406.401 547.745Z" stroke="#000000" stroke-linecap="round" stroke-linejoin="round" stroke-miterlimit="10"/><path d="M409.599 564.734 412.797 564.734 412.797 479.797 409.599 479.797Z" stroke="#000000" stroke-linecap="round" stroke-linejoin="round" stroke-miterlimit="10"/><path d="M412.802 564.734 416 564.734 416 428.833 412.802 428.833Z" stroke="#000000" stroke-linecap="round" stroke-linejoin="round" stroke-miterlimit="10"/><path d="M416 564.734 419.198 564.734 419.198 462.807 416 462.807Z" stroke="#000000" stroke-linecap="round" stroke-linejoin="round" stroke-miterlimit="10"/><path d="M419.198 564.734 422.396 564.734 422.396 496.781 419.198 496.781Z" stroke="#000000" stroke-linecap="round" stroke-linejoin="round" stroke-miterlimit="10"/><path d="M422.401 564.734 425.599 564.734 425.599 428.833 422.401 428.833Z" stroke="#000000" stroke-linecap="round" stroke-linejoin="round" stroke-miterlimit="10"/><path d="M425.599 564.734 428.797 564.734 428.797 496.781 425.599 496.781Z" stroke="#000000" stroke-linecap="round" stroke-linejoin="round" stroke-miterlimit="10"/><path d="M428.802 564.734 432 564.734 432 496.781 428.802 496.781Z" stroke="#000000" stroke-linecap="round" stroke-linejoin="round" stroke-miterlimit="10"/><path d="M432 564.734 435.198 564.734 435.198 445.823 432 445.823Z" stroke="#000000" stroke-linecap="round" stroke-linejoin="round" stroke-miterlimit="10"/><path d="M435.198 564.734 438.396 564.734 438.396 547.745 435.198 547.745Z" stroke="#000000" stroke-linecap="round" stroke-linejoin="round" stroke-miterlimit="10"/><path d="M438.401 564.734 441.599 564.734 441.599 428.833 438.401 428.833Z" stroke="#000000" stroke-linecap="round" stroke-linejoin="round" stroke-miterlimit="10"/><path d="M441.599 564.734 444.797 564.734 444.797 547.745 441.599 547.745Z" stroke="#000000" stroke-linecap="round" stroke-linejoin="round" stroke-miterlimit="10"/><path d="M444.802 564.734 448 564.734 448 462.807 444.802 462.807Z" stroke="#000000" stroke-linecap="round" stroke-linejoin="round" stroke-miterlimit="10"/><path d="M448 564.734 451.198 564.734 451.198 479.797 448 479.797Z" stroke="#000000" stroke-linecap="round" stroke-linejoin="round" stroke-miterlimit="10"/><path d="M451.198 564.734 454.396 564.734 454.396 496.781 451.198 496.781Z" stroke="#000000" stroke-linecap="round" stroke-linejoin="round" stroke-miterlimit="10"/><path d="M454.401 564.734 457.599 564.734 457.599 513.771 454.401 513.771Z" stroke="#000000" stroke-linecap="round" stroke-linejoin="round" stroke-miterlimit="10"/><path d="M457.599 564.734 460.797 564.734 460.797 513.771 457.599 513.771Z" stroke="#000000" stroke-linecap="round" stroke-linejoin="round" stroke-miterlimit="10"/><path d="M460.802 564.734 464 564.734 464 496.781 460.802 496.781Z" stroke="#000000" stroke-linecap="round" stroke-linejoin="round" stroke-miterlimit="10"/><path d="M464 564.734 467.198 564.734Z" stroke="#000000" stroke-linecap="round" stroke-linejoin="round" stroke-miterlimit="10" fill="none"/><path d="M467.198 564.734 470.396 564.734 470.396 513.771 467.198 513.771Z" stroke="#000000" stroke-linecap="round" stroke-linejoin="round" stroke-miterlimit="10"/><path d="M470.401 564.734 473.599 564.734Z" stroke="#000000" stroke-linecap="round" stroke-linejoin="round" stroke-miterlimit="10" fill="none"/><path d="M473.599 564.734 476.797 564.734 476.797 513.771 473.599 513.771Z" stroke="#000000" stroke-linecap="round" stroke-linejoin="round" stroke-miterlimit="10"/><path d="M476.802 564.734 480 564.734 480 530.76 476.802 530.76Z" stroke="#000000" stroke-linecap="round" stroke-linejoin="round" stroke-miterlimit="10"/><path d="M480 564.734 483.198 564.734 483.198 547.745 480 547.745Z" stroke="#000000" stroke-linecap="round" stroke-linejoin="round" stroke-miterlimit="10"/><path d="M483.198 564.734 486.396 564.734 486.396 513.771 483.198 513.771Z" stroke="#000000" stroke-linecap="round" stroke-linejoin="round" stroke-miterlimit="10"/><path d="M486.401 564.734 489.599 564.734 489.599 530.76 486.401 530.76Z" stroke="#000000" stroke-linecap="round" stroke-linejoin="round" stroke-miterlimit="10"/><path d="M489.599 564.734 492.797 564.734 492.797 530.76 489.599 530.76Z" stroke="#000000" stroke-linecap="round" stroke-linejoin="round" stroke-miterlimit="10"/><path d="M492.802 564.734 496 564.734 496 547.745 492.802 547.745Z" stroke="#000000" stroke-linecap="round" stroke-linejoin="round" stroke-miterlimit="10"/><path d="M496 564.734 499.198 564.734 499.198 547.745 496 547.745Z" stroke="#000000" stroke-linecap="round" stroke-linejoin="round" stroke-miterlimit="10"/><path d="M499.198 564.734 502.396 564.734Z" stroke="#000000" stroke-linecap="round" stroke-linejoin="round" stroke-miterlimit="10" fill="none"/><path d="M502.401 564.734 505.599 564.734Z" stroke="#000000" stroke-linecap="round" stroke-linejoin="round" stroke-miterlimit="10" fill="none"/><path d="M505.599 564.734 508.797 564.734Z" stroke="#000000" stroke-linecap="round" stroke-linejoin="round" stroke-miterlimit="10" fill="none"/><path d="M508.802 564.734 512 564.734 512 547.745 508.802 547.745Z" stroke="#000000" stroke-linecap="round" stroke-linejoin="round" stroke-miterlimit="10"/><path d="M512 564.734 515.198 564.734Z" stroke="#000000" stroke-linecap="round" stroke-linejoin="round" stroke-miterlimit="10" fill="none"/><path d="M515.198 564.734 518.396 564.734Z" stroke="#000000" stroke-linecap="round" stroke-linejoin="round" stroke-miterlimit="10" fill="none"/><path d="M518.401 564.734 521.599 564.734Z" stroke="#000000" stroke-linecap="round" stroke-linejoin="round" stroke-miterlimit="10" fill="none"/><path d="M521.599 564.734 524.797 564.734Z" stroke="#000000" stroke-linecap="round" stroke-linejoin="round" stroke-miterlimit="10" fill="none"/><path d="M524.802 564.734 528 564.734Z" stroke="#000000" stroke-linecap="round" stroke-linejoin="round" stroke-miterlimit="10" fill="none"/><path d="M528 564.734 531.198 564.734Z" stroke="#000000" stroke-linecap="round" stroke-linejoin="round" stroke-miterlimit="10" fill="none"/><path d="M531.198 564.734 534.396 564.734Z" stroke="#000000" stroke-linecap="round" stroke-linejoin="round" stroke-miterlimit="10" fill="none"/><path d="M534.401 564.734 537.599 564.734Z" stroke="#000000" stroke-linecap="round" stroke-linejoin="round" stroke-miterlimit="10" fill="none"/><path d="M537.599 564.734 540.797 564.734 540.797 547.745 537.599 547.745Z" stroke="#000000" stroke-linecap="round" stroke-linejoin="round" stroke-miterlimit="10"/><g clip-path="url(#clip4)"><path d="M551.5 583.078 551.5 87.7188" stroke="#FF0000" stroke-width="3" stroke-linecap="round" stroke-linejoin="round" stroke-miterlimit="10" fill="none"/></g></g></g></g><text font-family="Times New Roman,Times New Roman_MSFontService,sans-serif" font-weight="400" font-size="24" transform="translate(162.573 658)">Scalar</text><text font-family="Times New Roman,Times New Roman_MSFontService,sans-serif" font-weight="400" font-size="24" transform="translate(222.093 658)">-</text><text font-family="Times New Roman,Times New Roman_MSFontService,sans-serif" font-weight="400" font-size="24" transform="translate(230.093 658)">on</text><text font-family="Times New Roman,Times New Roman_MSFontService,sans-serif" font-weight="400" font-size="24" transform="translate(254.093 658)">-</text><text font-family="Times New Roman,Times New Roman_MSFontService,sans-serif" font-weight="400" font-size="24" transform="translate(262.093 658)">network regression</text></g></svg>