<svg width="673" height="673" xmlns="http://www.w3.org/2000/svg" xmlns:xlink="http://www.w3.org/1999/xlink" overflow="hidden"><defs><clipPath id="clip0"><rect x="585" y="8" width="673" height="673"/></clipPath><clipPath id="clip1"><rect x="585" y="9" width="672" height="672"/></clipPath><clipPath id="clip2"><rect x="585" y="9" width="672" height="672"/></clipPath><clipPath id="clip3"><rect x="585" y="9" width="672" height="672"/></clipPath><clipPath id="clip4"><rect x="1189" y="87" width="4" height="497"/></clipPath></defs><g clip-path="url(#clip0)" transform="translate(-585 -8)"><g clip-path="url(#clip1)"><g clip-path="url(#clip2)"><g clip-path="url(#clip3)"><path d="M585 9 1257 9 1257 681 585 681Z" fill="#FFFFFF"/><path d="M933.094 51.9583 937.719 51.9583C939.302 51.9583 940.01 52.7292 940.01 54.4583L939.99 55.7083C939.99 56.5833 940.156 57.4167 940.406 58L942.573 58 942.573 57.5625C941.906 57.1042 941.76 56.6042 941.719 54.7292 941.719 52.4375 941.344 51.7292 939.823 51.0833 941.406 50.2917 942.031 49.3542 942.031 47.75 942.031 45.3125 940.531 44 937.781 44L931.323 44 931.323 58 933.094 58ZM933.094 50.3958 933.094 45.5625 937.427 45.5625C938.427 45.5625 939.01 45.7292 939.448 46.1042 939.927 46.5208 940.177 47.1458 940.177 47.9792 940.177 49.6458 939.323 50.3958 937.427 50.3958Z"/><path d="M950.188 47.2708 945.188 47.2708C945.312 46.4583 945.729 45.9583 946.896 45.2292L948.25 44.4792C949.583 43.75 950.271 42.75 950.271 41.5625 950.271 40.75 949.938 40 949.375 39.4792 948.812 38.9583 948.104 38.7292 947.208 38.7292 946 38.7292 945.104 39.1458 944.583 39.9792 944.25 40.5 944.104 41.1042 944.062 42.0833L945.25 42.0833C945.292 41.4167 945.375 41.0417 945.542 40.7083 945.833 40.125 946.458 39.75 947.167 39.75 948.25 39.75 949.062 40.5417 949.062 41.5833 949.062 42.3542 948.604 43.0417 947.771 43.5208L946.521 44.25C944.542 45.3958 943.958 46.2917 943.854 48.4167L950.188 48.4167Z"/><path d="M596.969 370.255 596.969 364.693 595.656 364.693 595.656 370.255 591.927 370.255 591.927 363.922 590.615 363.922 590.615 371.755 602.281 371.755 602.281 370.255Z"/><path d="M593.906 362.313 602.281 362.313 602.281 360.958 597.927 360.958C595.906 360.958 595.01 360.125 595.073 358.271L593.698 358.271C593.677 358.5 593.656 358.625 593.656 358.792 593.656 359.667 594.177 360.313 595.427 361.083L593.906 361.083Z"/><path d="M598.531 349.88C597.26 349.88 596.49 349.985 595.865 350.214 594.49 350.755 593.656 352.047 593.656 353.61 593.656 355.943 595.427 357.443 598.198 357.443 600.969 357.443 602.656 356.005 602.656 353.63 602.656 351.714 601.552 350.401 599.74 350.047L599.74 351.401C600.844 351.776 601.427 352.526 601.427 353.589 601.427 354.443 601.031 355.151 600.323 355.61 599.844 355.922 599.365 356.047 598.531 356.047ZM597.448 356.026C595.906 355.922 594.885 354.964 594.885 353.63 594.885 352.255 595.948 351.318 597.448 351.318Z"/><path d="M605.76 341.276 593.906 341.276 593.906 342.464 595.01 342.464C594.135 343.089 593.656 344.026 593.656 345.13 593.656 347.339 595.469 348.776 598.24 348.776 600.969 348.776 602.656 347.422 602.656 345.193 602.656 344.026 602.24 343.234 601.323 342.609L605.76 342.609ZM594.906 344.943C594.906 343.505 596.177 342.609 598.198 342.609 600.115 342.609 601.406 343.526 601.406 344.943 601.406 346.401 600.115 347.38 598.156 347.38 596.198 347.38 594.906 346.401 594.906 344.943Z"/><path d="M602.281 332.588 593.906 332.588 593.906 333.922 598.656 333.922C600.365 333.922 601.49 334.818 601.49 336.193 601.49 337.255 600.844 337.922 599.823 337.922L593.906 337.922 593.906 339.255 600.365 339.255C601.76 339.255 602.656 338.213 602.656 336.588 602.656 335.359 602.219 334.568 601.115 333.776L602.281 333.776Z"/><path d="M598.531 323.192C597.26 323.192 596.49 323.297 595.865 323.526 594.49 324.067 593.656 325.359 593.656 326.922 593.656 329.255 595.427 330.755 598.198 330.755 600.969 330.755 602.656 329.317 602.656 326.942 602.656 325.026 601.552 323.713 599.74 323.359L599.74 324.713C600.844 325.088 601.427 325.838 601.427 326.901 601.427 327.755 601.031 328.463 600.323 328.922 599.844 329.234 599.365 329.359 598.531 329.359ZM597.448 329.338C595.906 329.234 594.885 328.276 594.885 326.942 594.885 325.567 595.948 324.63 597.448 324.63Z"/><path d="M593.906 321.38 602.281 321.38 602.281 320.046 597.656 320.046C595.948 320.046 594.823 319.151 594.823 317.776 594.823 316.713 595.469 316.046 596.469 316.046L602.281 316.046 602.281 314.713 595.948 314.713C594.552 314.713 593.656 315.755 593.656 317.359 593.656 318.609 594.135 319.421 595.302 320.151L593.906 320.151Z"/><path d="M596.719 306.067C595.906 306.13 595.365 306.317 594.906 306.63 594.115 307.213 593.656 308.213 593.656 309.38 593.656 311.65 595.448 313.109 598.24 313.109 600.927 313.109 602.656 311.671 602.656 309.4 602.656 307.4 601.448 306.13 599.406 305.984L599.406 307.317C600.74 307.546 601.427 308.234 601.427 309.359 601.427 310.838 600.219 311.713 598.24 311.713 596.135 311.713 594.885 310.859 594.885 309.4 594.885 308.275 595.552 307.567 596.719 307.421Z"/><path d="M593.906 299.4 600.427 301.713 593.906 303.859 593.906 305.296 602.323 302.463 603.635 302.963C604.24 303.192 604.448 303.484 604.448 304.046 604.448 304.255 604.427 304.463 604.365 304.755L605.552 304.755C605.698 304.463 605.76 304.192 605.76 303.859 605.76 303.421 605.635 302.963 605.365 302.609 605.073 302.192 604.719 301.942 604.031 301.692L593.906 297.963Z"/><path d="M739.057 583.078 1196.2 583.078" stroke="#000000" stroke-linecap="round" stroke-linejoin="round" stroke-miterlimit="10" fill="none"/><path d="M739.057 583.078 739.057 592.682" stroke="#000000" stroke-linecap="round" stroke-linejoin="round" stroke-miterlimit="10" fill="none"/><path d="M830.484 583.078 830.484 592.682" stroke="#000000" stroke-linecap="round" stroke-linejoin="round" stroke-miterlimit="10" fill="none"/><path d="M921.917 583.078 921.917 592.682" stroke="#000000" stroke-linecap="round" stroke-linejoin="round" stroke-miterlimit="10" fill="none"/><path d="M1013.34 583.078 1013.34 592.682" stroke="#000000" stroke-linecap="round" stroke-linejoin="round" stroke-miterlimit="10" fill="none"/><path d="M1104.77 583.078 1104.77 592.682" stroke="#000000" stroke-linecap="round" stroke-linejoin="round" stroke-miterlimit="10" fill="none"/><path d="M1196.2 583.078 1196.2 592.682" stroke="#000000" stroke-linecap="round" stroke-linejoin="round" stroke-miterlimit="10" fill="none"/><path d="M725.365 612.641 721.552 612.641 721.552 613.807 725.365 613.807Z"/><path d="M730.547 606.078C729.505 606.078 728.526 606.557 727.943 607.328 727.213 608.37 726.838 609.891 726.838 612.036 726.838 615.953 728.109 618.016 730.547 618.016 732.943 618.016 734.255 615.953 734.255 612.141 734.255 609.891 733.901 608.391 733.151 607.328 732.568 606.536 731.63 606.078 730.547 606.078ZM730.547 607.328C732.068 607.328 732.818 608.87 732.818 612.016 732.818 615.307 732.088 616.849 730.526 616.849 729.026 616.849 728.276 615.245 728.276 612.057 728.276 608.87 729.026 607.328 730.547 607.328Z"/><path d="M738.109 615.974 736.443 615.974 736.443 617.641 738.109 617.641Z"/><path d="M743.891 606.078C742.849 606.078 741.87 606.557 741.287 607.328 740.557 608.37 740.182 609.891 740.182 612.036 740.182 615.953 741.453 618.016 743.891 618.016 746.287 618.016 747.599 615.953 747.599 612.141 747.599 609.891 747.245 608.391 746.495 607.328 745.912 606.536 744.974 606.078 743.891 606.078ZM743.891 607.328C745.412 607.328 746.162 608.87 746.162 612.016 746.162 615.307 745.432 616.849 743.87 616.849 742.37 616.849 741.62 615.245 741.62 612.057 741.62 608.87 742.37 607.328 743.891 607.328Z"/><path d="M756.016 606.286 750.141 606.286 749.308 612.474 750.599 612.474C751.245 611.682 751.808 611.411 752.703 611.411 754.224 611.411 755.162 612.453 755.162 614.141 755.162 615.766 754.224 616.766 752.683 616.766 751.453 616.766 750.703 616.141 750.349 614.849L748.953 614.849C749.141 615.786 749.308 616.224 749.641 616.641 750.287 617.516 751.433 618.016 752.703 618.016 754.995 618.016 756.599 616.349 756.599 613.953 756.599 611.703 755.12 610.161 752.933 610.161 752.141 610.161 751.495 610.37 750.849 610.849L751.287 607.682 756.016 607.682Z"/><path d="M819.312 606.078C818.271 606.078 817.292 606.557 816.708 607.328 815.979 608.37 815.604 609.891 815.604 612.036 815.604 615.953 816.875 618.016 819.312 618.016 821.708 618.016 823.021 615.953 823.021 612.141 823.021 609.891 822.667 608.391 821.917 607.328 821.333 606.536 820.396 606.078 819.312 606.078ZM819.312 607.328C820.833 607.328 821.583 608.87 821.583 612.016 821.583 615.307 820.854 616.849 819.292 616.849 817.792 616.849 817.042 615.245 817.042 612.057 817.042 608.87 817.792 607.328 819.312 607.328Z"/><path d="M826.875 615.974 825.208 615.974 825.208 617.641 826.875 617.641Z"/><path d="M832.656 606.078C831.615 606.078 830.636 606.557 830.052 607.328 829.323 608.37 828.948 609.891 828.948 612.036 828.948 615.953 830.219 618.016 832.656 618.016 835.052 618.016 836.365 615.953 836.365 612.141 836.365 609.891 836.011 608.391 835.261 607.328 834.677 606.536 833.74 606.078 832.656 606.078ZM832.656 607.328C834.177 607.328 834.927 608.87 834.927 612.016 834.927 615.307 834.198 616.849 832.636 616.849 831.136 616.849 830.386 615.245 830.386 612.057 830.386 608.87 831.136 607.328 832.656 607.328Z"/><path d="M841.552 606.078C840.511 606.078 839.532 606.557 838.948 607.328 838.219 608.37 837.844 609.891 837.844 612.036 837.844 615.953 839.115 618.016 841.552 618.016 843.948 618.016 845.261 615.953 845.261 612.141 845.261 609.891 844.907 608.391 844.157 607.328 843.573 606.536 842.636 606.078 841.552 606.078ZM841.552 607.328C843.073 607.328 843.823 608.87 843.823 612.016 843.823 615.307 843.094 616.849 841.532 616.849 840.032 616.849 839.282 615.245 839.282 612.057 839.282 608.87 840.032 607.328 841.552 607.328Z"/><path d="M910.745 606.078C909.703 606.078 908.724 606.557 908.141 607.328 907.411 608.37 907.036 609.891 907.036 612.036 907.036 615.953 908.307 618.016 910.745 618.016 913.141 618.016 914.453 615.953 914.453 612.141 914.453 609.891 914.099 608.391 913.349 607.328 912.766 606.536 911.828 606.078 910.745 606.078ZM910.745 607.328C912.266 607.328 913.016 608.87 913.016 612.016 913.016 615.307 912.286 616.849 910.724 616.849 909.224 616.849 908.474 615.245 908.474 612.057 908.474 608.87 909.224 607.328 910.745 607.328Z"/><path d="M918.307 615.974 916.641 615.974 916.641 617.641 918.307 617.641Z"/><path d="M924.089 606.078C923.047 606.078 922.068 606.557 921.485 607.328 920.755 608.37 920.38 609.891 920.38 612.036 920.38 615.953 921.651 618.016 924.089 618.016 926.485 618.016 927.797 615.953 927.797 612.141 927.797 609.891 927.443 608.391 926.693 607.328 926.11 606.536 925.172 606.078 924.089 606.078ZM924.089 607.328C925.61 607.328 926.36 608.87 926.36 612.016 926.36 615.307 925.63 616.849 924.068 616.849 922.568 616.849 921.818 615.245 921.818 612.057 921.818 608.87 922.568 607.328 924.089 607.328Z"/><path d="M936.214 606.286 930.339 606.286 929.506 612.474 930.797 612.474C931.443 611.682 932.006 611.411 932.901 611.411 934.422 611.411 935.36 612.453 935.36 614.141 935.36 615.766 934.422 616.766 932.881 616.766 931.651 616.766 930.901 616.141 930.547 614.849L929.151 614.849C929.339 615.786 929.506 616.224 929.839 616.641 930.485 617.516 931.631 618.016 932.901 618.016 935.193 618.016 936.797 616.349 936.797 613.953 936.797 611.703 935.318 610.161 933.131 610.161 932.339 610.161 931.693 610.37 931.047 610.849L931.485 607.682 936.214 607.682Z"/><path d="M1002.17 606.078C1001.13 606.078 1000.15 606.557 999.568 607.328 998.839 608.37 998.464 609.891 998.464 612.036 998.464 615.953 999.734 618.016 1002.17 618.016 1004.57 618.016 1005.88 615.953 1005.88 612.141 1005.88 609.891 1005.53 608.391 1004.78 607.328 1004.19 606.536 1003.26 606.078 1002.17 606.078ZM1002.17 607.328C1003.69 607.328 1004.44 608.87 1004.44 612.016 1004.44 615.307 1003.71 616.849 1002.15 616.849 1000.65 616.849 999.901 615.245 999.901 612.057 999.901 608.87 1000.65 607.328 1002.17 607.328Z"/><path d="M1009.73 615.974 1008.07 615.974 1008.07 617.641 1009.73 617.641Z"/><path d="M1015.27 609.391 1015.27 617.641 1016.66 617.641 1016.66 606.078 1015.75 606.078C1015.25 607.849 1014.93 608.099 1012.75 608.37L1012.75 609.391Z"/><path d="M1024.41 606.078C1023.37 606.078 1022.39 606.557 1021.81 607.328 1021.08 608.37 1020.7 609.891 1020.7 612.036 1020.7 615.953 1021.97 618.016 1024.41 618.016 1026.81 618.016 1028.12 615.953 1028.12 612.141 1028.12 609.891 1027.77 608.391 1027.02 607.328 1026.43 606.536 1025.5 606.078 1024.41 606.078ZM1024.41 607.328C1025.93 607.328 1026.68 608.87 1026.68 612.016 1026.68 615.307 1025.95 616.849 1024.39 616.849 1022.89 616.849 1022.14 615.245 1022.14 612.057 1022.14 608.87 1022.89 607.328 1024.41 607.328Z"/><path d="M1093.6 606.078C1092.56 606.078 1091.58 606.557 1090.99 607.328 1090.27 608.37 1089.89 609.891 1089.89 612.036 1089.89 615.953 1091.16 618.016 1093.6 618.016 1095.99 618.016 1097.31 615.953 1097.31 612.141 1097.31 609.891 1096.95 608.391 1096.2 607.328 1095.62 606.536 1094.68 606.078 1093.6 606.078ZM1093.6 607.328C1095.12 607.328 1095.87 608.87 1095.87 612.016 1095.87 615.307 1095.14 616.849 1093.58 616.849 1092.08 616.849 1091.33 615.245 1091.33 612.057 1091.33 608.87 1092.08 607.328 1093.6 607.328Z"/><path d="M1101.16 615.974 1099.49 615.974 1099.49 617.641 1101.16 617.641Z"/><path d="M1106.69 609.391 1106.69 617.641 1108.09 617.641 1108.09 606.078 1107.17 606.078C1106.67 607.849 1106.36 608.099 1104.17 608.37L1104.17 609.391Z"/><path d="M1119.07 606.286 1113.19 606.286 1112.36 612.474 1113.65 612.474C1114.3 611.682 1114.86 611.411 1115.76 611.411 1117.28 611.411 1118.21 612.453 1118.21 614.141 1118.21 615.766 1117.28 616.766 1115.73 616.766 1114.51 616.766 1113.76 616.141 1113.4 614.849L1112.01 614.849C1112.19 615.786 1112.36 616.224 1112.69 616.641 1113.34 617.516 1114.48 618.016 1115.76 618.016 1118.05 618.016 1119.65 616.349 1119.65 613.953 1119.65 611.703 1118.17 610.161 1115.98 610.161 1115.19 610.161 1114.55 610.37 1113.9 610.849L1114.34 607.682 1119.07 607.682Z"/><path d="M1185.03 606.078C1183.98 606.078 1183.01 606.557 1182.42 607.328 1181.69 608.37 1181.32 609.891 1181.32 612.036 1181.32 615.953 1182.59 618.016 1185.03 618.016 1187.42 618.016 1188.73 615.953 1188.73 612.141 1188.73 609.891 1188.38 608.391 1187.63 607.328 1187.05 606.536 1186.11 606.078 1185.03 606.078ZM1185.03 607.328C1186.55 607.328 1187.3 608.87 1187.3 612.016 1187.3 615.307 1186.57 616.849 1185.01 616.849 1183.51 616.849 1182.76 615.245 1182.76 612.057 1182.76 608.87 1183.51 607.328 1185.03 607.328Z"/><path d="M1192.59 615.974 1190.92 615.974 1190.92 617.641 1192.59 617.641Z"/><path d="M1202.08 616.245 1196.1 616.245C1196.25 615.286 1196.77 614.682 1198.14 613.828L1199.75 612.932C1201.33 612.057 1202.14 610.87 1202.14 609.453 1202.14 608.495 1201.77 607.599 1201.1 606.974 1200.43 606.37 1199.6 606.078 1198.52 606.078 1197.08 606.078 1196.02 606.578 1195.39 607.578 1194.97 608.182 1194.81 608.911 1194.77 610.078L1196.18 610.078C1196.22 609.286 1196.33 608.828 1196.52 608.432 1196.89 607.745 1197.62 607.307 1198.47 607.307 1199.75 607.307 1200.7 608.224 1200.7 609.474 1200.7 610.411 1200.18 611.203 1199.18 611.786L1197.7 612.641C1195.33 614.016 1194.64 615.099 1194.52 617.62L1202.08 617.62Z"/><path d="M1207.27 606.078C1206.22 606.078 1205.25 606.557 1204.66 607.328 1203.93 608.37 1203.56 609.891 1203.56 612.036 1203.56 615.953 1204.83 618.016 1207.27 618.016 1209.66 618.016 1210.97 615.953 1210.97 612.141 1210.97 609.891 1210.62 608.391 1209.87 607.328 1209.29 606.536 1208.35 606.078 1207.27 606.078ZM1207.27 607.328C1208.79 607.328 1209.54 608.87 1209.54 612.016 1209.54 615.307 1208.81 616.849 1207.25 616.849 1205.75 616.849 1205 615.245 1205 612.057 1205 608.87 1205.75 607.328 1207.27 607.328Z"/><path d="M663.719 564.734 663.719 192.844" stroke="#000000" stroke-linecap="round" stroke-linejoin="round" stroke-miterlimit="10" fill="none"/><path d="M663.719 564.734 654.12 564.734" stroke="#000000" stroke-linecap="round" stroke-linejoin="round" stroke-miterlimit="10" fill="none"/><path d="M663.719 440.771 654.12 440.771" stroke="#000000" stroke-linecap="round" stroke-linejoin="round" stroke-miterlimit="10" fill="none"/><path d="M663.719 316.807 654.12 316.807" stroke="#000000" stroke-linecap="round" stroke-linejoin="round" stroke-miterlimit="10" fill="none"/><path d="M663.719 192.844 654.12 192.844" stroke="#000000" stroke-linecap="round" stroke-linejoin="round" stroke-miterlimit="10" fill="none"/><path d="M629.12 564.786C629.12 565.828 629.599 566.807 630.37 567.391 631.411 568.12 632.932 568.495 635.078 568.495 638.995 568.495 641.057 567.224 641.057 564.786 641.057 562.391 638.995 561.078 635.182 561.078 632.932 561.078 631.432 561.432 630.37 562.182 629.578 562.766 629.12 563.703 629.12 564.786ZM630.37 564.786C630.37 563.266 631.911 562.516 635.057 562.516 638.349 562.516 639.891 563.245 639.891 564.807 639.891 566.307 638.286 567.057 635.099 567.057 631.911 567.057 630.37 566.307 630.37 564.786Z"/><path d="M632.432 445.521 640.682 445.521 640.682 444.125 629.12 444.125 629.12 445.042C630.891 445.542 631.141 445.854 631.411 448.042L632.432 448.042Z"/><path d="M629.12 436.375C629.12 437.417 629.599 438.396 630.37 438.979 631.411 439.708 632.932 440.083 635.078 440.083 638.995 440.083 641.057 438.812 641.057 436.375 641.057 433.979 638.995 432.667 635.182 432.667 632.932 432.667 631.432 433.021 630.37 433.771 629.578 434.354 629.12 435.292 629.12 436.375ZM630.37 436.375C630.37 434.854 631.911 434.104 635.057 434.104 638.349 434.104 639.891 434.833 639.891 436.396 639.891 437.896 638.286 438.646 635.099 438.646 631.911 438.646 630.37 437.896 630.37 436.375Z"/><path d="M639.286 317.599 639.286 323.578C638.328 323.432 637.724 322.911 636.87 321.536L635.974 319.932C635.099 318.349 633.911 317.536 632.495 317.536 631.536 317.536 630.641 317.911 630.016 318.578 629.411 319.245 629.12 320.078 629.12 321.161 629.12 322.599 629.62 323.661 630.62 324.286 631.224 324.703 631.953 324.87 633.12 324.911L633.12 323.495C632.328 323.453 631.87 323.349 631.474 323.161 630.786 322.786 630.349 322.057 630.349 321.203 630.349 319.932 631.266 318.974 632.516 318.974 633.453 318.974 634.245 319.495 634.828 320.495L635.682 321.974C637.057 324.349 638.141 325.036 640.661 325.161L640.661 317.599Z"/><path d="M629.12 312.411C629.12 313.453 629.599 314.432 630.37 315.015 631.411 315.745 632.932 316.12 635.078 316.12 638.995 316.12 641.057 314.849 641.057 312.411 641.057 310.015 638.995 308.703 635.182 308.703 632.932 308.703 631.432 309.057 630.37 309.807 629.578 310.39 629.12 311.328 629.12 312.411ZM630.37 312.411C630.37 310.89 631.911 310.14 635.057 310.14 638.349 310.14 639.891 310.87 639.891 312.432 639.891 313.932 638.286 314.682 635.099 314.682 631.911 314.682 630.37 313.932 630.37 312.411Z"/><path d="M635.349 198.198 635.349 197.427C635.349 195.906 636.078 195.094 637.474 195.094 638.932 195.094 639.807 195.969 639.807 197.427 639.807 198.969 639.016 199.719 637.328 199.823L637.328 201.219C638.245 201.156 638.849 201.01 639.37 200.74 640.495 200.135 641.057 199.031 641.057 197.49 641.057 195.156 639.641 193.635 637.453 193.635 635.974 193.635 635.182 194.198 634.703 195.573 634.266 194.51 633.474 193.99 632.307 193.99 630.307 193.99 629.12 195.281 629.12 197.427 629.12 199.719 630.391 200.948 632.849 200.99L632.849 199.573C632.141 199.573 631.745 199.49 631.391 199.323 630.724 199.01 630.349 198.302 630.349 197.427 630.349 196.177 631.099 195.427 632.349 195.427 633.161 195.427 633.661 195.698 633.932 196.323 634.099 196.719 634.161 197.219 634.161 198.198Z"/><path d="M629.12 188.448C629.12 189.489 629.599 190.469 630.37 191.052 631.411 191.781 632.932 192.156 635.078 192.156 638.995 192.156 641.057 190.885 641.057 188.448 641.057 186.052 638.995 184.739 635.182 184.739 632.932 184.739 631.432 185.094 630.37 185.844 629.578 186.427 629.12 187.364 629.12 188.448ZM630.37 188.448C630.37 186.927 631.911 186.177 635.057 186.177 638.349 186.177 639.891 186.906 639.891 188.469 639.891 189.969 638.286 190.719 635.099 190.719 631.911 190.719 630.37 189.969 630.37 188.448Z"/><path d="M684.198 564.734 687.854 564.734 687.854 552.339 684.198 552.339Z" stroke="#000000" stroke-linecap="round" stroke-linejoin="round" stroke-miterlimit="10"/><path d="M687.859 564.734 691.516 564.734 691.516 552.339 687.859 552.339Z" stroke="#000000" stroke-linecap="round" stroke-linejoin="round" stroke-miterlimit="10"/><path d="M691.516 564.734 695.172 564.734 695.172 552.339 691.516 552.339Z" stroke="#000000" stroke-linecap="round" stroke-linejoin="round" stroke-miterlimit="10"/><path d="M695.172 564.734 698.828 564.734Z" stroke="#000000" stroke-linecap="round" stroke-linejoin="round" stroke-miterlimit="10" fill="none"/><path d="M698.828 564.734 702.484 564.734 702.484 539.943 698.828 539.943Z" stroke="#000000" stroke-linecap="round" stroke-linejoin="round" stroke-miterlimit="10"/><path d="M702.484 564.734 706.141 564.734 706.141 552.339 702.484 552.339Z" stroke="#000000" stroke-linecap="round" stroke-linejoin="round" stroke-miterlimit="10"/><path d="M706.141 564.734 709.797 564.734Z" stroke="#000000" stroke-linecap="round" stroke-linejoin="round" stroke-miterlimit="10" fill="none"/><path d="M709.802 564.734 713.458 564.734 713.458 552.339 709.802 552.339Z" stroke="#000000" stroke-linecap="round" stroke-linejoin="round" stroke-miterlimit="10"/><path d="M713.458 564.734 717.115 564.734 717.115 539.943 713.458 539.943Z" stroke="#000000" stroke-linecap="round" stroke-linejoin="round" stroke-miterlimit="10"/><path d="M717.115 564.734 720.771 564.734 720.771 539.943 717.115 539.943Z" stroke="#000000" stroke-linecap="round" stroke-linejoin="round" stroke-miterlimit="10"/><path d="M720.771 564.734 724.427 564.734 724.427 539.943 720.771 539.943Z" stroke="#000000" stroke-linecap="round" stroke-linejoin="round" stroke-miterlimit="10"/><path d="M724.427 564.734 728.083 564.734Z" stroke="#000000" stroke-linecap="round" stroke-linejoin="round" stroke-miterlimit="10" fill="none"/><path d="M728.083 564.734 731.74 564.734 731.74 477.958 728.083 477.958Z" stroke="#000000" stroke-linecap="round" stroke-linejoin="round" stroke-miterlimit="10"/><path d="M731.745 564.734 735.401 564.734 735.401 502.75 731.745 502.75Z" stroke="#000000" stroke-linecap="round" stroke-linejoin="round" stroke-miterlimit="10"/><path d="M735.401 564.734 739.057 564.734 739.057 502.75 735.401 502.75Z" stroke="#000000" stroke-linecap="round" stroke-linejoin="round" stroke-miterlimit="10"/><path d="M739.057 564.734 742.714 564.734 742.714 428.375 739.057 428.375Z" stroke="#000000" stroke-linecap="round" stroke-linejoin="round" stroke-miterlimit="10"/><path d="M742.714 564.734 746.37 564.734 746.37 490.354 742.714 490.354Z" stroke="#000000" stroke-linecap="round" stroke-linejoin="round" stroke-miterlimit="10"/><path d="M746.37 564.734 750.026 564.734 750.026 453.167 746.37 453.167Z" stroke="#000000" stroke-linecap="round" stroke-linejoin="round" stroke-miterlimit="10"/><path d="M750.026 564.734 753.682 564.734 753.682 465.562 750.026 465.562Z" stroke="#000000" stroke-linecap="round" stroke-linejoin="round" stroke-miterlimit="10"/><path d="M753.688 564.734 757.344 564.734 757.344 391.182 753.688 391.182Z" stroke="#000000" stroke-linecap="round" stroke-linejoin="round" stroke-miterlimit="10"/><path d="M757.344 564.734 761 564.734 761 428.375 757.344 428.375Z" stroke="#000000" stroke-linecap="round" stroke-linejoin="round" stroke-miterlimit="10"/><path d="M761 564.734 764.656 564.734 764.656 428.375 761 428.375Z" stroke="#000000" stroke-linecap="round" stroke-linejoin="round" stroke-miterlimit="10"/><path d="M764.656 564.734 768.312 564.734 768.312 453.167 764.656 453.167Z" stroke="#000000" stroke-linecap="round" stroke-linejoin="round" stroke-miterlimit="10"/><path d="M768.312 564.734 771.969 564.734 771.969 428.375 768.312 428.375Z" stroke="#000000" stroke-linecap="round" stroke-linejoin="round" stroke-miterlimit="10"/><path d="M771.974 564.734 775.63 564.734 775.63 341.599 771.974 341.599Z" stroke="#000000" stroke-linecap="round" stroke-linejoin="round" stroke-miterlimit="10"/><path d="M775.63 564.734 779.286 564.734 779.286 292.016 775.63 292.016Z" stroke="#000000" stroke-linecap="round" stroke-linejoin="round" stroke-miterlimit="10"/><path d="M779.286 564.734 782.943 564.734 782.943 378.786 779.286 378.786Z" stroke="#000000" stroke-linecap="round" stroke-linejoin="round" stroke-miterlimit="10"/><path d="M782.943 564.734 786.599 564.734 786.599 415.979 782.943 415.979Z" stroke="#000000" stroke-linecap="round" stroke-linejoin="round" stroke-miterlimit="10"/><path d="M786.599 564.734 790.255 564.734 790.255 267.219 786.599 267.219Z" stroke="#000000" stroke-linecap="round" stroke-linejoin="round" stroke-miterlimit="10"/><path d="M790.255 564.734 793.911 564.734 793.911 242.427 790.255 242.427Z" stroke="#000000" stroke-linecap="round" stroke-linejoin="round" stroke-miterlimit="10"/><path d="M793.917 564.734 797.573 564.734 797.573 230.031 793.917 230.031Z" stroke="#000000" stroke-linecap="round" stroke-linejoin="round" stroke-miterlimit="10"/><path d="M797.573 564.734 801.229 564.734 801.229 304.411 797.573 304.411Z" stroke="#000000" stroke-linecap="round" stroke-linejoin="round" stroke-miterlimit="10"/><path d="M801.229 564.734 804.885 564.734 804.885 366.391 801.229 366.391Z" stroke="#000000" stroke-linecap="round" stroke-linejoin="round" stroke-miterlimit="10"/><path d="M804.885 564.734 808.542 564.734 808.542 155.651 804.885 155.651Z" stroke="#000000" stroke-linecap="round" stroke-linejoin="round" stroke-miterlimit="10"/><path d="M808.542 564.734 812.198 564.734 812.198 118.464 808.542 118.464Z" stroke="#000000" stroke-linecap="round" stroke-linejoin="round" stroke-miterlimit="10"/><path d="M812.198 564.734 815.854 564.734 815.854 292.016 812.198 292.016Z" stroke="#000000" stroke-linecap="round" stroke-linejoin="round" stroke-miterlimit="10"/><path d="M815.859 564.734 819.516 564.734 819.516 180.448 815.859 180.448Z" stroke="#000000" stroke-linecap="round" stroke-linejoin="round" stroke-miterlimit="10"/><path d="M819.516 564.734 823.172 564.734 823.172 254.823 819.516 254.823Z" stroke="#000000" stroke-linecap="round" stroke-linejoin="round" stroke-miterlimit="10"/><path d="M823.172 564.734 826.828 564.734 826.828 106.068 823.172 106.068Z" stroke="#000000" stroke-linecap="round" stroke-linejoin="round" stroke-miterlimit="10"/><path d="M826.828 564.734 830.484 564.734 830.484 242.427 826.828 242.427Z" stroke="#000000" stroke-linecap="round" stroke-linejoin="round" stroke-miterlimit="10"/><path d="M830.484 564.734 834.141 564.734 834.141 205.24 830.484 205.24Z" stroke="#000000" stroke-linecap="round" stroke-linejoin="round" stroke-miterlimit="10"/><path d="M834.141 564.734 837.797 564.734 837.797 254.823 834.141 254.823Z" stroke="#000000" stroke-linecap="round" stroke-linejoin="round" stroke-miterlimit="10"/><path d="M837.802 564.734 841.458 564.734 841.458 230.031 837.802 230.031Z" stroke="#000000" stroke-linecap="round" stroke-linejoin="round" stroke-miterlimit="10"/><path d="M841.458 564.734 845.115 564.734 845.115 292.016 841.458 292.016Z" stroke="#000000" stroke-linecap="round" stroke-linejoin="round" stroke-miterlimit="10"/><path d="M845.115 564.734 848.771 564.734 848.771 217.635 845.115 217.635Z" stroke="#000000" stroke-linecap="round" stroke-linejoin="round" stroke-miterlimit="10"/><path d="M848.771 564.734 852.427 564.734 852.427 192.844 848.771 192.844Z" stroke="#000000" stroke-linecap="round" stroke-linejoin="round" stroke-miterlimit="10"/><path d="M852.427 564.734 856.083 564.734 856.083 192.844 852.427 192.844Z" stroke="#000000" stroke-linecap="round" stroke-linejoin="round" stroke-miterlimit="10"/><path d="M856.083 564.734 859.74 564.734 859.74 292.016 856.083 292.016Z" stroke="#000000" stroke-linecap="round" stroke-linejoin="round" stroke-miterlimit="10"/><path d="M859.745 564.734 863.401 564.734 863.401 292.016 859.745 292.016Z" stroke="#000000" stroke-linecap="round" stroke-linejoin="round" stroke-miterlimit="10"/><path d="M863.401 564.734 867.057 564.734 867.057 242.427 863.401 242.427Z" stroke="#000000" stroke-linecap="round" stroke-linejoin="round" stroke-miterlimit="10"/><path d="M867.057 564.734 870.714 564.734 870.714 254.823 867.057 254.823Z" stroke="#000000" stroke-linecap="round" stroke-linejoin="round" stroke-miterlimit="10"/><path d="M870.714 564.734 874.37 564.734 874.37 292.016 870.714 292.016Z" stroke="#000000" stroke-linecap="round" stroke-linejoin="round" stroke-miterlimit="10"/><path d="M874.37 564.734 878.026 564.734 878.026 267.219 874.37 267.219Z" stroke="#000000" stroke-linecap="round" stroke-linejoin="round" stroke-miterlimit="10"/><path d="M878.026 564.734 881.682 564.734 881.682 366.391 878.026 366.391Z" stroke="#000000" stroke-linecap="round" stroke-linejoin="round" stroke-miterlimit="10"/><path d="M881.688 564.734 885.344 564.734 885.344 316.807 881.688 316.807Z" stroke="#000000" stroke-linecap="round" stroke-linejoin="round" stroke-miterlimit="10"/><path d="M885.344 564.734 889 564.734 889 353.995 885.344 353.995Z" stroke="#000000" stroke-linecap="round" stroke-linejoin="round" stroke-miterlimit="10"/><path d="M889 564.734 892.656 564.734 892.656 415.979 889 415.979Z" stroke="#000000" stroke-linecap="round" stroke-linejoin="round" stroke-miterlimit="10"/><path d="M892.656 564.734 896.312 564.734 896.312 378.786 892.656 378.786Z" stroke="#000000" stroke-linecap="round" stroke-linejoin="round" stroke-miterlimit="10"/><path d="M896.312 564.734 899.969 564.734 899.969 465.562 896.312 465.562Z" stroke="#000000" stroke-linecap="round" stroke-linejoin="round" stroke-miterlimit="10"/><path d="M899.974 564.734 903.63 564.734 903.63 465.562 899.974 465.562Z" stroke="#000000" stroke-linecap="round" stroke-linejoin="round" stroke-miterlimit="10"/><path d="M903.63 564.734 907.286 564.734 907.286 440.771 903.63 440.771Z" stroke="#000000" stroke-linecap="round" stroke-linejoin="round" stroke-miterlimit="10"/><path d="M907.286 564.734 910.943 564.734 910.943 527.547 907.286 527.547Z" stroke="#000000" stroke-linecap="round" stroke-linejoin="round" stroke-miterlimit="10"/><path d="M910.943 564.734 914.599 564.734 914.599 477.958 910.943 477.958Z" stroke="#000000" stroke-linecap="round" stroke-linejoin="round" stroke-miterlimit="10"/><path d="M914.599 564.734 918.255 564.734 918.255 490.354 914.599 490.354Z" stroke="#000000" stroke-linecap="round" stroke-linejoin="round" stroke-miterlimit="10"/><path d="M918.255 564.734 921.911 564.734 921.911 527.547 918.255 527.547Z" stroke="#000000" stroke-linecap="round" stroke-linejoin="round" stroke-miterlimit="10"/><path d="M921.917 564.734 925.573 564.734 925.573 515.151 921.917 515.151Z" stroke="#000000" stroke-linecap="round" stroke-linejoin="round" stroke-miterlimit="10"/><path d="M925.573 564.734 929.229 564.734 929.229 490.354 925.573 490.354Z" stroke="#000000" stroke-linecap="round" stroke-linejoin="round" stroke-miterlimit="10"/><path d="M929.229 564.734 932.885 564.734 932.885 477.958 929.229 477.958Z" stroke="#000000" stroke-linecap="round" stroke-linejoin="round" stroke-miterlimit="10"/><path d="M932.885 564.734 936.542 564.734 936.542 502.75 932.885 502.75Z" stroke="#000000" stroke-linecap="round" stroke-linejoin="round" stroke-miterlimit="10"/><path d="M936.542 564.734 940.198 564.734 940.198 539.943 936.542 539.943Z" stroke="#000000" stroke-linecap="round" stroke-linejoin="round" stroke-miterlimit="10"/><path d="M940.198 564.734 943.854 564.734Z" stroke="#000000" stroke-linecap="round" stroke-linejoin="round" stroke-miterlimit="10" fill="none"/><path d="M943.859 564.734 947.516 564.734Z" stroke="#000000" stroke-linecap="round" stroke-linejoin="round" stroke-miterlimit="10" fill="none"/><path d="M947.516 564.734 951.172 564.734 951.172 539.943 947.516 539.943Z" stroke="#000000" stroke-linecap="round" stroke-linejoin="round" stroke-miterlimit="10"/><path d="M951.172 564.734 954.828 564.734 954.828 539.943 951.172 539.943Z" stroke="#000000" stroke-linecap="round" stroke-linejoin="round" stroke-miterlimit="10"/><path d="M954.828 564.734 958.484 564.734 958.484 552.339 954.828 552.339Z" stroke="#000000" stroke-linecap="round" stroke-linejoin="round" stroke-miterlimit="10"/><path d="M958.484 564.734 962.141 564.734 962.141 539.943 958.484 539.943Z" stroke="#000000" stroke-linecap="round" stroke-linejoin="round" stroke-miterlimit="10"/><path d="M962.141 564.734 965.797 564.734Z" stroke="#000000" stroke-linecap="round" stroke-linejoin="round" stroke-miterlimit="10" fill="none"/><path d="M965.802 564.734 969.458 564.734Z" stroke="#000000" stroke-linecap="round" stroke-linejoin="round" stroke-miterlimit="10" fill="none"/><path d="M969.458 564.734 973.115 564.734Z" stroke="#000000" stroke-linecap="round" stroke-linejoin="round" stroke-miterlimit="10" fill="none"/><path d="M973.115 564.734 976.771 564.734Z" stroke="#000000" stroke-linecap="round" stroke-linejoin="round" stroke-miterlimit="10" fill="none"/><path d="M976.771 564.734 980.427 564.734Z" stroke="#000000" stroke-linecap="round" stroke-linejoin="round" stroke-miterlimit="10" fill="none"/><path d="M980.427 564.734 984.083 564.734Z" stroke="#000000" stroke-linecap="round" stroke-linejoin="round" stroke-miterlimit="10" fill="none"/><path d="M984.083 564.734 987.74 564.734Z" stroke="#000000" stroke-linecap="round" stroke-linejoin="round" stroke-miterlimit="10" fill="none"/><path d="M987.745 564.734 991.401 564.734Z" stroke="#000000" stroke-linecap="round" stroke-linejoin="round" stroke-miterlimit="10" fill="none"/><path d="M991.401 564.734 995.057 564.734 995.057 552.339 991.401 552.339Z" stroke="#000000" stroke-linecap="round" stroke-linejoin="round" stroke-miterlimit="10"/><g clip-path="url(#clip4)"><path d="M1190.62 583.078 1190.62 87.7188" stroke="#FF0000" stroke-width="3" stroke-linecap="round" stroke-linejoin="round" stroke-miterlimit="10" fill="none"/></g></g></g></g><text font-family="Times New Roman,Times New Roman_MSFontService,sans-serif" font-weight="400" font-size="24" transform="translate(780.056 658)">Scalar</text><text font-family="Times New Roman,Times New Roman_MSFontService,sans-serif" font-weight="400" font-size="24" transform="translate(839.576 658)">-</text><text font-family="Times New Roman,Times New Roman_MSFontService,sans-serif" font-weight="400" font-size="24" transform="translate(847.576 658)">on</text><text font-family="Times New Roman,Times New Roman_MSFontService,sans-serif" font-weight="400" font-size="24" transform="translate(871.576 658)">-</text><text font-family="Times New Roman,Times New Roman_MSFontService,sans-serif" font-weight="400" font-size="24" transform="translate(879.576 658)">network regression</text></g></svg>