<svg width="674" height="673" xmlns="http://www.w3.org/2000/svg" xmlns:xlink="http://www.w3.org/1999/xlink" overflow="hidden"><defs><clipPath id="clip0"><rect x="-33" y="8" width="674" height="673"/></clipPath><clipPath id="clip1"><rect x="-32" y="9" width="672" height="672"/></clipPath><clipPath id="clip2"><rect x="-32" y="9" width="672" height="672"/></clipPath><clipPath id="clip3"><rect x="-32" y="9" width="672" height="672"/></clipPath><clipPath id="clip4"><rect x="429" y="87" width="5" height="497"/></clipPath></defs><g clip-path="url(#clip0)" transform="translate(33 -8)"><g clip-path="url(#clip1)"><g clip-path="url(#clip2)"><g clip-path="url(#clip3)"><path d="M-32 9 640 9 640 681-32 681Z" fill="#FFFFFF"/><path d="M316.094 51.9583 320.719 51.9583C322.302 51.9583 323.01 52.7292 323.01 54.4583L322.99 55.7083C322.99 56.5833 323.156 57.4167 323.406 58L325.573 58 325.573 57.5625C324.906 57.1042 324.76 56.6042 324.719 54.7292 324.719 52.4375 324.344 51.7292 322.823 51.0833 324.406 50.2917 325.031 49.3542 325.031 47.75 325.031 45.3125 323.531 44 320.781 44L314.323 44 314.323 58 316.094 58ZM316.094 50.3958 316.094 45.5625 320.427 45.5625C321.427 45.5625 322.01 45.7292 322.448 46.1042 322.927 46.5208 323.177 47.1458 323.177 47.9792 323.177 49.6458 322.323 50.3958 320.427 50.3958Z"/><path d="M333.188 47.2708 328.188 47.2708C328.312 46.4583 328.729 45.9583 329.896 45.2292L331.25 44.4792C332.583 43.75 333.271 42.75 333.271 41.5625 333.271 40.75 332.938 40 332.375 39.4792 331.812 38.9583 331.104 38.7292 330.208 38.7292 329 38.7292 328.104 39.1458 327.583 39.9792 327.25 40.5 327.104 41.1042 327.062 42.0833L328.25 42.0833C328.292 41.4167 328.375 41.0417 328.542 40.7083 328.833 40.125 329.458 39.75 330.167 39.75 331.25 39.75 332.062 40.5417 332.062 41.5833 332.062 42.3542 331.604 43.0417 330.771 43.5208L329.521 44.25C327.542 45.3958 326.958 46.2917 326.854 48.4167L333.188 48.4167Z"/><path d="M-20.0312 370.255-20.0312 364.693-21.3438 364.693-21.3438 370.255-25.0729 370.255-25.0729 363.922-26.3854 363.922-26.3854 371.755-14.7187 371.755-14.7187 370.255Z"/><path d="M-23.0938 362.313-14.7187 362.313-14.7187 360.958-19.0729 360.958C-21.0938 360.958-21.9896 360.125-21.9271 358.271L-23.3021 358.271C-23.3229 358.5-23.3438 358.625-23.3438 358.792-23.3438 359.667-22.8229 360.313-21.5729 361.083L-23.0938 361.083Z"/><path d="M-18.4688 349.88C-19.7396 349.88-20.5104 349.985-21.1354 350.214-22.5104 350.755-23.3438 352.047-23.3438 353.61-23.3438 355.943-21.5729 357.443-18.8021 357.443-16.0312 357.443-14.3437 356.005-14.3437 353.63-14.3437 351.714-15.4479 350.401-17.2604 350.047L-17.2604 351.401C-16.1562 351.776-15.5729 352.526-15.5729 353.589-15.5729 354.443-15.9687 355.151-16.6771 355.61-17.1562 355.922-17.6354 356.047-18.4688 356.047ZM-19.5521 356.026C-21.0938 355.922-22.1146 354.964-22.1146 353.63-22.1146 352.255-21.0521 351.318-19.5521 351.318Z"/><path d="M-11.2396 341.276-23.0938 341.276-23.0938 342.464-21.9896 342.464C-22.8646 343.089-23.3438 344.026-23.3438 345.13-23.3438 347.339-21.5312 348.776-18.7604 348.776-16.0312 348.776-14.3437 347.422-14.3437 345.193-14.3437 344.026-14.7604 343.234-15.6771 342.609L-11.2396 342.609ZM-22.0938 344.943C-22.0938 343.505-20.8229 342.609-18.8021 342.609-16.8854 342.609-15.5937 343.526-15.5937 344.943-15.5937 346.401-16.8854 347.38-18.8438 347.38-20.8021 347.38-22.0938 346.401-22.0938 344.943Z"/><path d="M-14.7187 332.588-23.0938 332.588-23.0938 333.922-18.3438 333.922C-16.6354 333.922-15.5104 334.818-15.5104 336.193-15.5104 337.255-16.1562 337.922-17.1771 337.922L-23.0938 337.922-23.0938 339.255-16.6354 339.255C-15.2396 339.255-14.3437 338.213-14.3437 336.588-14.3437 335.359-14.7812 334.568-15.8854 333.776L-14.7187 333.776Z"/><path d="M-18.4688 323.192C-19.7396 323.192-20.5104 323.297-21.1354 323.526-22.5104 324.067-23.3438 325.359-23.3438 326.922-23.3438 329.255-21.5729 330.755-18.8021 330.755-16.0312 330.755-14.3437 329.317-14.3437 326.942-14.3437 325.026-15.4479 323.713-17.2604 323.359L-17.2604 324.713C-16.1562 325.088-15.5729 325.838-15.5729 326.901-15.5729 327.755-15.9687 328.463-16.6771 328.922-17.1562 329.234-17.6354 329.359-18.4688 329.359ZM-19.5521 329.338C-21.0938 329.234-22.1146 328.276-22.1146 326.942-22.1146 325.567-21.0521 324.63-19.5521 324.63Z"/><path d="M-23.0938 321.38-14.7187 321.38-14.7187 320.046-19.3438 320.046C-21.0521 320.046-22.1771 319.151-22.1771 317.776-22.1771 316.713-21.5312 316.046-20.5312 316.046L-14.7187 316.046-14.7187 314.713-21.0521 314.713C-22.4479 314.713-23.3438 315.755-23.3438 317.359-23.3438 318.609-22.8646 319.421-21.6979 320.151L-23.0938 320.151Z"/><path d="M-20.2812 306.067C-21.0938 306.13-21.6354 306.317-22.0938 306.63-22.8854 307.213-23.3438 308.213-23.3438 309.38-23.3438 311.65-21.5521 313.109-18.7604 313.109-16.0729 313.109-14.3437 311.671-14.3437 309.4-14.3437 307.4-15.5521 306.13-17.5938 305.984L-17.5938 307.317C-16.2604 307.546-15.5729 308.234-15.5729 309.359-15.5729 310.838-16.7812 311.713-18.7604 311.713-20.8646 311.713-22.1146 310.859-22.1146 309.4-22.1146 308.275-21.4479 307.567-20.2812 307.421Z"/><path d="M-23.0938 299.4-16.5729 301.713-23.0938 303.859-23.0938 305.296-14.6771 302.463-13.3646 302.963C-12.7604 303.192-12.5521 303.484-12.5521 304.046-12.5521 304.255-12.5729 304.463-12.6354 304.755L-11.4479 304.755C-11.3021 304.463-11.2396 304.192-11.2396 303.859-11.2396 303.421-11.3646 302.963-11.6354 302.609-11.9271 302.192-12.2812 301.942-12.9687 301.692L-23.0938 297.963Z"/><path d="M67.1979 583.078 579.198 583.078" stroke="#000000" stroke-linecap="round" stroke-linejoin="round" stroke-miterlimit="10" fill="none"/><path d="M67.1979 583.078 67.1979 592.682" stroke="#000000" stroke-linecap="round" stroke-linejoin="round" stroke-miterlimit="10" fill="none"/><path d="M169.599 583.078 169.599 592.682" stroke="#000000" stroke-linecap="round" stroke-linejoin="round" stroke-miterlimit="10" fill="none"/><path d="M272 583.078 272 592.682" stroke="#000000" stroke-linecap="round" stroke-linejoin="round" stroke-miterlimit="10" fill="none"/><path d="M374.401 583.078 374.401 592.682" stroke="#000000" stroke-linecap="round" stroke-linejoin="round" stroke-miterlimit="10" fill="none"/><path d="M476.802 583.078 476.802 592.682" stroke="#000000" stroke-linecap="round" stroke-linejoin="round" stroke-miterlimit="10" fill="none"/><path d="M579.198 583.078 579.198 592.682" stroke="#000000" stroke-linecap="round" stroke-linejoin="round" stroke-miterlimit="10" fill="none"/><path d="M53.5052 612.641 49.6927 612.641 49.6927 613.807 53.5052 613.807Z"/><path d="M58.6874 606.078C57.6457 606.078 56.6665 606.557 56.0832 607.328 55.354 608.37 54.979 609.891 54.979 612.036 54.979 615.953 56.2499 618.016 58.6874 618.016 61.0832 618.016 62.3957 615.953 62.3957 612.141 62.3957 609.891 62.0415 608.391 61.2915 607.328 60.7082 606.536 59.7707 606.078 58.6874 606.078ZM58.6874 607.328C60.2082 607.328 60.9582 608.87 60.9582 612.016 60.9582 615.307 60.229 616.849 58.6665 616.849 57.1665 616.849 56.4165 615.245 56.4165 612.057 56.4165 608.87 57.1665 607.328 58.6874 607.328Z"/><path d="M66.25 615.974 64.5834 615.974 64.5834 617.641 66.25 617.641Z"/><path d="M72.0314 606.078C70.9897 606.078 70.0105 606.557 69.4272 607.328 68.698 608.37 68.323 609.891 68.323 612.036 68.323 615.953 69.5939 618.016 72.0314 618.016 74.4272 618.016 75.7397 615.953 75.7397 612.141 75.7397 609.891 75.3855 608.391 74.6355 607.328 74.0522 606.536 73.1147 606.078 72.0314 606.078ZM72.0314 607.328C73.5522 607.328 74.3022 608.87 74.3022 612.016 74.3022 615.307 73.573 616.849 72.0105 616.849 70.5105 616.849 69.7605 615.245 69.7605 612.057 69.7605 608.87 70.5105 607.328 72.0314 607.328Z"/><path d="M84.1565 606.286 78.2815 606.286 77.4482 612.474 78.7399 612.474C79.3857 611.682 79.9482 611.411 80.844 611.411 82.3649 611.411 83.3024 612.453 83.3024 614.141 83.3024 615.766 82.3649 616.766 80.8232 616.766 79.594 616.766 78.844 616.141 78.4899 614.849L77.094 614.849C77.2815 615.786 77.4482 616.224 77.7815 616.641 78.4274 617.516 79.5732 618.016 80.844 618.016 83.1357 618.016 84.7399 616.349 84.7399 613.953 84.7399 611.703 83.2607 610.161 81.0732 610.161 80.2815 610.161 79.6357 610.37 78.9899 610.849L79.4274 607.682 84.1565 607.682Z"/><path d="M158.427 606.078C157.385 606.078 156.406 606.557 155.823 607.328 155.094 608.37 154.719 609.891 154.719 612.036 154.719 615.953 155.99 618.016 158.427 618.016 160.823 618.016 162.135 615.953 162.135 612.141 162.135 609.891 161.781 608.391 161.031 607.328 160.448 606.536 159.51 606.078 158.427 606.078ZM158.427 607.328C159.948 607.328 160.698 608.87 160.698 612.016 160.698 615.307 159.969 616.849 158.406 616.849 156.906 616.849 156.156 615.245 156.156 612.057 156.156 608.87 156.906 607.328 158.427 607.328Z"/><path d="M165.99 615.974 164.323 615.974 164.323 617.641 165.99 617.641Z"/><path d="M171.771 606.078C170.729 606.078 169.75 606.557 169.167 607.328 168.438 608.37 168.063 609.891 168.063 612.036 168.063 615.953 169.334 618.016 171.771 618.016 174.167 618.016 175.479 615.953 175.479 612.141 175.479 609.891 175.125 608.391 174.375 607.328 173.792 606.536 172.854 606.078 171.771 606.078ZM171.771 607.328C173.292 607.328 174.042 608.87 174.042 612.016 174.042 615.307 173.313 616.849 171.75 616.849 170.25 616.849 169.5 615.245 169.5 612.057 169.5 608.87 170.25 607.328 171.771 607.328Z"/><path d="M180.667 606.078C179.625 606.078 178.646 606.557 178.063 607.328 177.334 608.37 176.959 609.891 176.959 612.036 176.959 615.953 178.23 618.016 180.667 618.016 183.063 618.016 184.375 615.953 184.375 612.141 184.375 609.891 184.021 608.391 183.271 607.328 182.688 606.536 181.75 606.078 180.667 606.078ZM180.667 607.328C182.188 607.328 182.938 608.87 182.938 612.016 182.938 615.307 182.209 616.849 180.646 616.849 179.146 616.849 178.396 615.245 178.396 612.057 178.396 608.87 179.146 607.328 180.667 607.328Z"/><path d="M260.828 606.078C259.786 606.078 258.807 606.557 258.224 607.328 257.495 608.37 257.12 609.891 257.12 612.036 257.12 615.953 258.391 618.016 260.828 618.016 263.224 618.016 264.536 615.953 264.536 612.141 264.536 609.891 264.182 608.391 263.432 607.328 262.849 606.536 261.911 606.078 260.828 606.078ZM260.828 607.328C262.349 607.328 263.099 608.87 263.099 612.016 263.099 615.307 262.37 616.849 260.807 616.849 259.307 616.849 258.557 615.245 258.557 612.057 258.557 608.87 259.307 607.328 260.828 607.328Z"/><path d="M268.391 615.974 266.724 615.974 266.724 617.641 268.391 617.641Z"/><path d="M274.172 606.078C273.13 606.078 272.151 606.557 271.568 607.328 270.839 608.37 270.464 609.891 270.464 612.036 270.464 615.953 271.735 618.016 274.172 618.016 276.568 618.016 277.88 615.953 277.88 612.141 277.88 609.891 277.526 608.391 276.776 607.328 276.193 606.536 275.255 606.078 274.172 606.078ZM274.172 607.328C275.693 607.328 276.443 608.87 276.443 612.016 276.443 615.307 275.714 616.849 274.151 616.849 272.651 616.849 271.901 615.245 271.901 612.057 271.901 608.87 272.651 607.328 274.172 607.328Z"/><path d="M286.297 606.286 280.422 606.286 279.589 612.474 280.881 612.474C281.526 611.682 282.089 611.411 282.985 611.411 284.506 611.411 285.443 612.453 285.443 614.141 285.443 615.766 284.506 616.766 282.964 616.766 281.735 616.766 280.985 616.141 280.631 614.849L279.235 614.849C279.422 615.786 279.589 616.224 279.922 616.641 280.568 617.516 281.714 618.016 282.985 618.016 285.276 618.016 286.881 616.349 286.881 613.953 286.881 611.703 285.401 610.161 283.214 610.161 282.422 610.161 281.776 610.37 281.131 610.849L281.568 607.682 286.297 607.682Z"/><path d="M363.229 606.078C362.188 606.078 361.208 606.557 360.625 607.328 359.896 608.37 359.521 609.891 359.521 612.036 359.521 615.953 360.792 618.016 363.229 618.016 365.625 618.016 366.938 615.953 366.938 612.141 366.938 609.891 366.583 608.391 365.833 607.328 365.25 606.536 364.312 606.078 363.229 606.078ZM363.229 607.328C364.75 607.328 365.5 608.87 365.5 612.016 365.5 615.307 364.771 616.849 363.208 616.849 361.708 616.849 360.958 615.245 360.958 612.057 360.958 608.87 361.708 607.328 363.229 607.328Z"/><path d="M370.792 615.974 369.125 615.974 369.125 617.641 370.792 617.641Z"/><path d="M376.323 609.391 376.323 617.641 377.719 617.641 377.719 606.078 376.802 606.078C376.302 607.849 375.99 608.099 373.802 608.37L373.802 609.391Z"/><path d="M385.469 606.078C384.427 606.078 383.448 606.557 382.865 607.328 382.136 608.37 381.761 609.891 381.761 612.036 381.761 615.953 383.032 618.016 385.469 618.016 387.865 618.016 389.177 615.953 389.177 612.141 389.177 609.891 388.823 608.391 388.073 607.328 387.49 606.536 386.552 606.078 385.469 606.078ZM385.469 607.328C386.99 607.328 387.74 608.87 387.74 612.016 387.74 615.307 387.011 616.849 385.448 616.849 383.948 616.849 383.198 615.245 383.198 612.057 383.198 608.87 383.948 607.328 385.469 607.328Z"/><path d="M465.63 606.078C464.589 606.078 463.609 606.557 463.026 607.328 462.297 608.37 461.922 609.891 461.922 612.036 461.922 615.953 463.193 618.016 465.63 618.016 468.026 618.016 469.339 615.953 469.339 612.141 469.339 609.891 468.984 608.391 468.234 607.328 467.651 606.536 466.714 606.078 465.63 606.078ZM465.63 607.328C467.151 607.328 467.901 608.87 467.901 612.016 467.901 615.307 467.172 616.849 465.609 616.849 464.109 616.849 463.359 615.245 463.359 612.057 463.359 608.87 464.109 607.328 465.63 607.328Z"/><path d="M473.193 615.974 471.526 615.974 471.526 617.641 473.193 617.641Z"/><path d="M478.724 609.391 478.724 617.641 480.12 617.641 480.12 606.078 479.203 606.078C478.703 607.849 478.391 608.099 476.203 608.37L476.203 609.391Z"/><path d="M491.099 606.286 485.224 606.286 484.391 612.474 485.683 612.474C486.329 611.682 486.891 611.411 487.787 611.411 489.308 611.411 490.245 612.453 490.245 614.141 490.245 615.766 489.308 616.766 487.766 616.766 486.537 616.766 485.787 616.141 485.433 614.849L484.037 614.849C484.224 615.786 484.391 616.224 484.724 616.641 485.37 617.516 486.516 618.016 487.787 618.016 490.079 618.016 491.683 616.349 491.683 613.953 491.683 611.703 490.204 610.161 488.016 610.161 487.224 610.161 486.579 610.37 485.933 610.849L486.37 607.682 491.099 607.682Z"/><path d="M568.026 606.078C566.984 606.078 566.005 606.557 565.422 607.328 564.693 608.37 564.318 609.891 564.318 612.036 564.318 615.953 565.589 618.016 568.026 618.016 570.422 618.016 571.734 615.953 571.734 612.141 571.734 609.891 571.38 608.391 570.63 607.328 570.047 606.536 569.109 606.078 568.026 606.078ZM568.026 607.328C569.547 607.328 570.297 608.87 570.297 612.016 570.297 615.307 569.568 616.849 568.005 616.849 566.505 616.849 565.755 615.245 565.755 612.057 565.755 608.87 566.505 607.328 568.026 607.328Z"/><path d="M575.589 615.974 573.922 615.974 573.922 617.641 575.589 617.641Z"/><path d="M585.078 616.245 579.099 616.245C579.245 615.286 579.766 614.682 581.141 613.828L582.745 612.932C584.328 612.057 585.141 610.87 585.141 609.453 585.141 608.495 584.766 607.599 584.099 606.974 583.432 606.37 582.599 606.078 581.516 606.078 580.078 606.078 579.016 606.578 578.391 607.578 577.974 608.182 577.807 608.911 577.766 610.078L579.182 610.078C579.224 609.286 579.328 608.828 579.516 608.432 579.891 607.745 580.62 607.307 581.474 607.307 582.745 607.307 583.703 608.224 583.703 609.474 583.703 610.411 583.182 611.203 582.182 611.786L580.703 612.641C578.328 614.016 577.641 615.099 577.516 617.62L585.078 617.62Z"/><path d="M590.266 606.078C589.224 606.078 588.245 606.557 587.662 607.328 586.933 608.37 586.558 609.891 586.558 612.036 586.558 615.953 587.828 618.016 590.266 618.016 592.662 618.016 593.974 615.953 593.974 612.141 593.974 609.891 593.62 608.391 592.87 607.328 592.287 606.536 591.349 606.078 590.266 606.078ZM590.266 607.328C591.787 607.328 592.537 608.87 592.537 612.016 592.537 615.307 591.808 616.849 590.245 616.849 588.745 616.849 587.995 615.245 587.995 612.057 587.995 608.87 588.745 607.328 590.266 607.328Z"/><path d="M46.7188 564.734 46.7188 147.766" stroke="#000000" stroke-linecap="round" stroke-linejoin="round" stroke-miterlimit="10" fill="none"/><path d="M46.7188 564.734 37.1198 564.734" stroke="#000000" stroke-linecap="round" stroke-linejoin="round" stroke-miterlimit="10" fill="none"/><path d="M46.7188 495.24 37.1198 495.24" stroke="#000000" stroke-linecap="round" stroke-linejoin="round" stroke-miterlimit="10" fill="none"/><path d="M46.7188 425.745 37.1198 425.745" stroke="#000000" stroke-linecap="round" stroke-linejoin="round" stroke-miterlimit="10" fill="none"/><path d="M46.7188 356.25 37.1198 356.25" stroke="#000000" stroke-linecap="round" stroke-linejoin="round" stroke-miterlimit="10" fill="none"/><path d="M46.7188 286.755 37.1198 286.755" stroke="#000000" stroke-linecap="round" stroke-linejoin="round" stroke-miterlimit="10" fill="none"/><path d="M46.7188 217.26 37.1198 217.26" stroke="#000000" stroke-linecap="round" stroke-linejoin="round" stroke-miterlimit="10" fill="none"/><path d="M46.7188 147.766 37.1198 147.766" stroke="#000000" stroke-linecap="round" stroke-linejoin="round" stroke-miterlimit="10" fill="none"/><path d="M12.1198 564.786C12.1198 565.828 12.599 566.807 13.3698 567.391 14.4115 568.12 15.9323 568.495 18.0781 568.495 21.9948 568.495 24.0573 567.224 24.0573 564.786 24.0573 562.391 21.9948 561.078 18.1823 561.078 15.9323 561.078 14.4323 561.432 13.3698 562.182 12.5781 562.766 12.1198 563.703 12.1198 564.786ZM13.3698 564.786C13.3698 563.266 14.9115 562.516 18.0573 562.516 21.349 562.516 22.8906 563.245 22.8906 564.807 22.8906 566.307 21.2865 567.057 18.099 567.057 14.9115 567.057 13.3698 566.307 13.3698 564.786Z"/><path d="M12.3281 492.062 12.3281 497.938 18.5156 498.771 18.5156 497.479C17.724 496.833 17.4531 496.271 17.4531 495.375 17.4531 493.854 18.4948 492.917 20.1823 492.917 21.8073 492.917 22.8073 493.854 22.8073 495.396 22.8073 496.625 22.1823 497.375 20.8906 497.729L20.8906 499.125C21.8281 498.938 22.2656 498.771 22.6823 498.438 23.5573 497.792 24.0573 496.646 24.0573 495.375 24.0573 493.083 22.3906 491.479 19.9948 491.479 17.7448 491.479 16.2031 492.958 16.2031 495.146 16.2031 495.938 16.4115 496.583 16.8906 497.229L13.724 496.792 13.724 492.062Z"/><path d="M15.4323 430.495 23.6823 430.495 23.6823 429.099 12.1198 429.099 12.1198 430.016C13.8906 430.516 14.1406 430.828 14.4115 433.016L15.4323 433.016Z"/><path d="M12.1198 421.349C12.1198 422.39 12.599 423.37 13.3698 423.953 14.4115 424.682 15.9323 425.057 18.0781 425.057 21.9948 425.057 24.0573 423.786 24.0573 421.349 24.0573 418.953 21.9948 417.64 18.1823 417.64 15.9323 417.64 14.4323 417.995 13.3698 418.745 12.5781 419.328 12.1198 420.265 12.1198 421.349ZM13.3698 421.349C13.3698 419.828 14.9115 419.078 18.0573 419.078 21.349 419.078 22.8906 419.807 22.8906 421.37 22.8906 422.87 21.2865 423.62 18.099 423.62 14.9115 423.62 13.3698 422.87 13.3698 421.349Z"/><path d="M15.4323 361 23.6823 361 23.6823 359.604 12.1198 359.604 12.1198 360.521C13.8906 361.021 14.1406 361.333 14.4115 363.521L15.4323 363.521Z"/><path d="M12.3281 348.625 12.3281 354.5 18.5156 355.333 18.5156 354.042C17.724 353.396 17.4531 352.833 17.4531 351.937 17.4531 350.417 18.4948 349.479 20.1823 349.479 21.8073 349.479 22.8073 350.417 22.8073 351.958 22.8073 353.187 22.1823 353.937 20.8906 354.292L20.8906 355.687C21.8281 355.5 22.2656 355.333 22.6823 355 23.5573 354.354 24.0573 353.208 24.0573 351.937 24.0573 349.646 22.3906 348.042 19.9948 348.042 17.7448 348.042 16.2031 349.521 16.2031 351.708 16.2031 352.5 16.4115 353.146 16.8906 353.792L13.724 353.354 13.724 348.625Z"/><path d="M22.2865 287.547 22.2865 293.526C21.3281 293.38 20.724 292.859 19.8698 291.484L18.974 289.88C18.099 288.297 16.9115 287.484 15.4948 287.484 14.5365 287.484 13.6406 287.859 13.0156 288.526 12.4115 289.193 12.1198 290.026 12.1198 291.109 12.1198 292.547 12.6198 293.609 13.6198 294.234 14.224 294.651 14.9531 294.818 16.1198 294.859L16.1198 293.443C15.3281 293.401 14.8698 293.297 14.474 293.109 13.7865 292.734 13.349 292.005 13.349 291.151 13.349 289.88 14.2656 288.922 15.5156 288.922 16.4531 288.922 17.2448 289.443 17.8281 290.443L18.6823 291.922C20.0573 294.297 21.1406 294.984 23.6615 295.109L23.6615 287.547Z"/><path d="M12.1198 282.359C12.1198 283.401 12.599 284.38 13.3698 284.963 14.4115 285.693 15.9323 286.068 18.0781 286.068 21.9948 286.068 24.0573 284.797 24.0573 282.359 24.0573 279.963 21.9948 278.651 18.1823 278.651 15.9323 278.651 14.4323 279.005 13.3698 279.755 12.5781 280.338 12.1198 281.276 12.1198 282.359ZM13.3698 282.359C13.3698 280.838 14.9115 280.088 18.0573 280.088 21.349 280.088 22.8906 280.818 22.8906 282.38 22.8906 283.88 21.2865 284.63 18.099 284.63 14.9115 284.63 13.3698 283.88 13.3698 282.359Z"/><path d="M22.2865 218.052 22.2865 224.031C21.3281 223.885 20.724 223.365 19.8698 221.99L18.974 220.385C18.099 218.802 16.9115 217.99 15.4948 217.99 14.5365 217.99 13.6406 218.365 13.0156 219.031 12.4115 219.698 12.1198 220.531 12.1198 221.615 12.1198 223.052 12.6198 224.115 13.6198 224.74 14.224 225.156 14.9531 225.323 16.1198 225.365L16.1198 223.948C15.3281 223.906 14.8698 223.802 14.474 223.615 13.7865 223.24 13.349 222.51 13.349 221.656 13.349 220.385 14.2656 219.427 15.5156 219.427 16.4531 219.427 17.2448 219.948 17.8281 220.948L18.6823 222.427C20.0573 224.802 21.1406 225.49 23.6615 225.615L23.6615 218.052Z"/><path d="M12.3281 209.635 12.3281 215.51 18.5156 216.344 18.5156 215.052C17.724 214.406 17.4531 213.844 17.4531 212.948 17.4531 211.427 18.4948 210.489 20.1823 210.489 21.8073 210.489 22.8073 211.427 22.8073 212.969 22.8073 214.198 22.1823 214.948 20.8906 215.302L20.8906 216.698C21.8281 216.51 22.2656 216.344 22.6823 216.01 23.5573 215.364 24.0573 214.219 24.0573 212.948 24.0573 210.656 22.3906 209.052 19.9948 209.052 17.7448 209.052 16.2031 210.531 16.2031 212.719 16.2031 213.51 16.4115 214.156 16.8906 214.802L13.724 214.364 13.724 209.635Z"/><path d="M18.349 153.12 18.349 152.349C18.349 150.828 19.0781 150.016 20.474 150.016 21.9323 150.016 22.8073 150.891 22.8073 152.349 22.8073 153.891 22.0156 154.641 20.3281 154.745L20.3281 156.141C21.2448 156.078 21.849 155.932 22.3698 155.661 23.4948 155.057 24.0573 153.953 24.0573 152.411 24.0573 150.078 22.6406 148.557 20.4531 148.557 18.974 148.557 18.1823 149.12 17.7031 150.495 17.2656 149.432 16.474 148.911 15.3073 148.911 13.3073 148.911 12.1198 150.203 12.1198 152.349 12.1198 154.641 13.3906 155.87 15.849 155.911L15.849 154.495C15.1406 154.495 14.7448 154.411 14.3906 154.245 13.724 153.932 13.349 153.224 13.349 152.349 13.349 151.099 14.099 150.349 15.349 150.349 16.1615 150.349 16.6615 150.62 16.9323 151.245 17.099 151.641 17.1615 152.141 17.1615 153.12Z"/><path d="M12.1198 143.37C12.1198 144.411 12.599 145.39 13.3698 145.974 14.4115 146.703 15.9323 147.078 18.0781 147.078 21.9948 147.078 24.0573 145.807 24.0573 143.37 24.0573 140.974 21.9948 139.661 18.1823 139.661 15.9323 139.661 14.4323 140.015 13.3698 140.765 12.5781 141.349 12.1198 142.286 12.1198 143.37ZM13.3698 143.37C13.3698 141.849 14.9115 141.099 18.0573 141.099 21.349 141.099 22.8906 141.828 22.8906 143.39 22.8906 144.89 21.2865 145.64 18.099 145.64 14.9115 145.64 13.3698 144.89 13.3698 143.37Z"/><path d="M71.2969 564.734 73.3438 564.734 73.3438 550.833 71.2969 550.833Z" stroke="#000000" stroke-linecap="round" stroke-linejoin="round" stroke-miterlimit="10"/><path d="M73.3438 564.734 75.3906 564.734Z" stroke="#000000" stroke-linecap="round" stroke-linejoin="round" stroke-miterlimit="10" fill="none"/><path d="M75.3906 564.734 77.4375 564.734Z" stroke="#000000" stroke-linecap="round" stroke-linejoin="round" stroke-miterlimit="10" fill="none"/><path d="M77.4375 564.734 79.4844 564.734Z" stroke="#000000" stroke-linecap="round" stroke-linejoin="round" stroke-miterlimit="10" fill="none"/><path d="M79.4896 564.734 81.5365 564.734 81.5365 536.938 79.4896 536.938Z" stroke="#000000" stroke-linecap="round" stroke-linejoin="round" stroke-miterlimit="10"/><path d="M81.5365 564.734 83.5833 564.734 83.5833 550.833 81.5365 550.833Z" stroke="#000000" stroke-linecap="round" stroke-linejoin="round" stroke-miterlimit="10"/><path d="M83.5833 564.734 85.6302 564.734Z" stroke="#000000" stroke-linecap="round" stroke-linejoin="round" stroke-miterlimit="10" fill="none"/><path d="M85.6302 564.734 87.6771 564.734 87.6771 536.938 85.6302 536.938Z" stroke="#000000" stroke-linecap="round" stroke-linejoin="round" stroke-miterlimit="10"/><path d="M87.6823 564.734 89.7292 564.734Z" stroke="#000000" stroke-linecap="round" stroke-linejoin="round" stroke-miterlimit="10" fill="none"/><path d="M89.7292 564.734 91.776 564.734Z" stroke="#000000" stroke-linecap="round" stroke-linejoin="round" stroke-miterlimit="10" fill="none"/><path d="M91.776 564.734 93.8229 564.734Z" stroke="#000000" stroke-linecap="round" stroke-linejoin="round" stroke-miterlimit="10" fill="none"/><path d="M93.8229 564.734 95.8698 564.734Z" stroke="#000000" stroke-linecap="round" stroke-linejoin="round" stroke-miterlimit="10" fill="none"/><path d="M95.8698 564.734 97.9167 564.734Z" stroke="#000000" stroke-linecap="round" stroke-linejoin="round" stroke-miterlimit="10" fill="none"/><path d="M97.9219 564.734 99.9688 564.734Z" stroke="#000000" stroke-linecap="round" stroke-linejoin="round" stroke-miterlimit="10" fill="none"/><path d="M99.9688 564.734 102.016 564.734 102.016 536.938 99.9688 536.938Z" stroke="#000000" stroke-linecap="round" stroke-linejoin="round" stroke-miterlimit="10"/><path d="M102.016 564.734 104.062 564.734 104.062 509.141 102.016 509.141Z" stroke="#000000" stroke-linecap="round" stroke-linejoin="round" stroke-miterlimit="10"/><path d="M104.062 564.734 106.109 564.734 106.109 550.833 104.062 550.833Z" stroke="#000000" stroke-linecap="round" stroke-linejoin="round" stroke-miterlimit="10"/><path d="M106.115 564.734 108.161 564.734 108.161 536.938 106.115 536.938Z" stroke="#000000" stroke-linecap="round" stroke-linejoin="round" stroke-miterlimit="10"/><path d="M108.161 564.734 110.208 564.734 110.208 550.833 108.161 550.833Z" stroke="#000000" stroke-linecap="round" stroke-linejoin="round" stroke-miterlimit="10"/><path d="M110.208 564.734 112.255 564.734 112.255 509.141 110.208 509.141Z" stroke="#000000" stroke-linecap="round" stroke-linejoin="round" stroke-miterlimit="10"/><path d="M112.255 564.734 114.302 564.734 114.302 495.24 112.255 495.24Z" stroke="#000000" stroke-linecap="round" stroke-linejoin="round" stroke-miterlimit="10"/><path d="M114.302 564.734 116.349 564.734 116.349 509.141 114.302 509.141Z" stroke="#000000" stroke-linecap="round" stroke-linejoin="round" stroke-miterlimit="10"/><path d="M116.354 564.734 118.401 564.734 118.401 495.24 116.354 495.24Z" stroke="#000000" stroke-linecap="round" stroke-linejoin="round" stroke-miterlimit="10"/><path d="M118.401 564.734 120.448 564.734 120.448 439.646 118.401 439.646Z" stroke="#000000" stroke-linecap="round" stroke-linejoin="round" stroke-miterlimit="10"/><path d="M120.448 564.734 122.495 564.734 122.495 495.24 120.448 495.24Z" stroke="#000000" stroke-linecap="round" stroke-linejoin="round" stroke-miterlimit="10"/><path d="M122.495 564.734 124.542 564.734 124.542 467.443 122.495 467.443Z" stroke="#000000" stroke-linecap="round" stroke-linejoin="round" stroke-miterlimit="10"/><path d="M124.542 564.734 126.589 564.734 126.589 425.745 124.542 425.745Z" stroke="#000000" stroke-linecap="round" stroke-linejoin="round" stroke-miterlimit="10"/><path d="M126.594 564.734 128.641 564.734 128.641 453.542 126.594 453.542Z" stroke="#000000" stroke-linecap="round" stroke-linejoin="round" stroke-miterlimit="10"/><path d="M128.641 564.734 130.688 564.734 130.688 397.948 128.641 397.948Z" stroke="#000000" stroke-linecap="round" stroke-linejoin="round" stroke-miterlimit="10"/><path d="M130.688 564.734 132.734 564.734 132.734 411.844 130.688 411.844Z" stroke="#000000" stroke-linecap="round" stroke-linejoin="round" stroke-miterlimit="10"/><path d="M132.734 564.734 134.781 564.734 134.781 300.651 132.734 300.651Z" stroke="#000000" stroke-linecap="round" stroke-linejoin="round" stroke-miterlimit="10"/><path d="M134.786 564.734 136.833 564.734 136.833 439.646 134.786 439.646Z" stroke="#000000" stroke-linecap="round" stroke-linejoin="round" stroke-miterlimit="10"/><path d="M136.833 564.734 138.88 564.734 138.88 258.958 136.833 258.958Z" stroke="#000000" stroke-linecap="round" stroke-linejoin="round" stroke-miterlimit="10"/><path d="M138.88 564.734 140.927 564.734 140.927 314.552 138.88 314.552Z" stroke="#000000" stroke-linecap="round" stroke-linejoin="round" stroke-miterlimit="10"/><path d="M140.927 564.734 142.974 564.734 142.974 300.651 140.927 300.651Z" stroke="#000000" stroke-linecap="round" stroke-linejoin="round" stroke-miterlimit="10"/><path d="M142.974 564.734 145.021 564.734 145.021 286.755 142.974 286.755Z" stroke="#000000" stroke-linecap="round" stroke-linejoin="round" stroke-miterlimit="10"/><path d="M145.026 564.734 147.073 564.734 147.073 286.755 145.026 286.755Z" stroke="#000000" stroke-linecap="round" stroke-linejoin="round" stroke-miterlimit="10"/><path d="M147.073 564.734 149.12 564.734 149.12 342.349 147.073 342.349Z" stroke="#000000" stroke-linecap="round" stroke-linejoin="round" stroke-miterlimit="10"/><path d="M149.12 564.734 151.167 564.734 151.167 328.453 149.12 328.453Z" stroke="#000000" stroke-linecap="round" stroke-linejoin="round" stroke-miterlimit="10"/><path d="M151.167 564.734 153.214 564.734 153.214 272.854 151.167 272.854Z" stroke="#000000" stroke-linecap="round" stroke-linejoin="round" stroke-miterlimit="10"/><path d="M153.214 564.734 155.26 564.734 155.26 217.26 153.214 217.26Z" stroke="#000000" stroke-linecap="round" stroke-linejoin="round" stroke-miterlimit="10"/><path d="M155.266 564.734 157.312 564.734 157.312 133.865 155.266 133.865Z" stroke="#000000" stroke-linecap="round" stroke-linejoin="round" stroke-miterlimit="10"/><path d="M157.312 564.734 159.359 564.734 159.359 203.359 157.312 203.359Z" stroke="#000000" stroke-linecap="round" stroke-linejoin="round" stroke-miterlimit="10"/><path d="M159.359 564.734 161.406 564.734 161.406 106.068 159.359 106.068Z" stroke="#000000" stroke-linecap="round" stroke-linejoin="round" stroke-miterlimit="10"/><path d="M161.406 564.734 163.453 564.734 163.453 217.26 161.406 217.26Z" stroke="#000000" stroke-linecap="round" stroke-linejoin="round" stroke-miterlimit="10"/><path d="M163.458 564.734 165.505 564.734 165.505 147.766 163.458 147.766Z" stroke="#000000" stroke-linecap="round" stroke-linejoin="round" stroke-miterlimit="10"/><path d="M165.505 564.734 167.552 564.734 167.552 147.766 165.505 147.766Z" stroke="#000000" stroke-linecap="round" stroke-linejoin="round" stroke-miterlimit="10"/><path d="M167.552 564.734 169.599 564.734 169.599 258.958 167.552 258.958Z" stroke="#000000" stroke-linecap="round" stroke-linejoin="round" stroke-miterlimit="10"/><path d="M169.599 564.734 171.646 564.734 171.646 147.766 169.599 147.766Z" stroke="#000000" stroke-linecap="round" stroke-linejoin="round" stroke-miterlimit="10"/><path d="M171.646 564.734 173.693 564.734 173.693 258.958 171.646 258.958Z" stroke="#000000" stroke-linecap="round" stroke-linejoin="round" stroke-miterlimit="10"/><path d="M173.698 564.734 175.745 564.734 175.745 217.26 173.698 217.26Z" stroke="#000000" stroke-linecap="round" stroke-linejoin="round" stroke-miterlimit="10"/><path d="M175.745 564.734 177.792 564.734 177.792 189.464 175.745 189.464Z" stroke="#000000" stroke-linecap="round" stroke-linejoin="round" stroke-miterlimit="10"/><path d="M177.792 564.734 179.839 564.734 179.839 217.26 177.792 217.26Z" stroke="#000000" stroke-linecap="round" stroke-linejoin="round" stroke-miterlimit="10"/><path d="M179.839 564.734 181.885 564.734 181.885 133.865 179.839 133.865Z" stroke="#000000" stroke-linecap="round" stroke-linejoin="round" stroke-miterlimit="10"/><path d="M181.885 564.734 183.932 564.734 183.932 189.464 181.885 189.464Z" stroke="#000000" stroke-linecap="round" stroke-linejoin="round" stroke-miterlimit="10"/><path d="M183.938 564.734 185.984 564.734 185.984 258.958 183.938 258.958Z" stroke="#000000" stroke-linecap="round" stroke-linejoin="round" stroke-miterlimit="10"/><path d="M185.984 564.734 188.031 564.734 188.031 300.651 185.984 300.651Z" stroke="#000000" stroke-linecap="round" stroke-linejoin="round" stroke-miterlimit="10"/><path d="M188.031 564.734 190.078 564.734 190.078 245.057 188.031 245.057Z" stroke="#000000" stroke-linecap="round" stroke-linejoin="round" stroke-miterlimit="10"/><path d="M190.078 564.734 192.125 564.734 192.125 272.854 190.078 272.854Z" stroke="#000000" stroke-linecap="round" stroke-linejoin="round" stroke-miterlimit="10"/><path d="M192.13 564.734 194.177 564.734 194.177 258.958 192.13 258.958Z" stroke="#000000" stroke-linecap="round" stroke-linejoin="round" stroke-miterlimit="10"/><path d="M194.177 564.734 196.224 564.734 196.224 300.651 194.177 300.651Z" stroke="#000000" stroke-linecap="round" stroke-linejoin="round" stroke-miterlimit="10"/><path d="M196.224 564.734 198.271 564.734 198.271 300.651 196.224 300.651Z" stroke="#000000" stroke-linecap="round" stroke-linejoin="round" stroke-miterlimit="10"/><path d="M198.271 564.734 200.318 564.734 200.318 258.958 198.271 258.958Z" stroke="#000000" stroke-linecap="round" stroke-linejoin="round" stroke-miterlimit="10"/><path d="M200.318 564.734 202.365 564.734 202.365 370.151 200.318 370.151Z" stroke="#000000" stroke-linecap="round" stroke-linejoin="round" stroke-miterlimit="10"/><path d="M202.37 564.734 204.417 564.734 204.417 411.844 202.37 411.844Z" stroke="#000000" stroke-linecap="round" stroke-linejoin="round" stroke-miterlimit="10"/><path d="M204.417 564.734 206.464 564.734 206.464 370.151 204.417 370.151Z" stroke="#000000" stroke-linecap="round" stroke-linejoin="round" stroke-miterlimit="10"/><path d="M206.464 564.734 208.51 564.734 208.51 411.844 206.464 411.844Z" stroke="#000000" stroke-linecap="round" stroke-linejoin="round" stroke-miterlimit="10"/><path d="M208.51 564.734 210.557 564.734 210.557 425.745 208.51 425.745Z" stroke="#000000" stroke-linecap="round" stroke-linejoin="round" stroke-miterlimit="10"/><path d="M210.562 564.734 212.609 564.734 212.609 370.151 210.562 370.151Z" stroke="#000000" stroke-linecap="round" stroke-linejoin="round" stroke-miterlimit="10"/><path d="M212.609 564.734 214.656 564.734 214.656 509.141 212.609 509.141Z" stroke="#000000" stroke-linecap="round" stroke-linejoin="round" stroke-miterlimit="10"/><path d="M214.656 564.734 216.703 564.734 216.703 411.844 214.656 411.844Z" stroke="#000000" stroke-linecap="round" stroke-linejoin="round" stroke-miterlimit="10"/><path d="M216.703 564.734 218.75 564.734 218.75 495.24 216.703 495.24Z" stroke="#000000" stroke-linecap="round" stroke-linejoin="round" stroke-miterlimit="10"/><path d="M218.75 564.734 220.797 564.734 220.797 439.646 218.75 439.646Z" stroke="#000000" stroke-linecap="round" stroke-linejoin="round" stroke-miterlimit="10"/><path d="M220.802 564.734 222.849 564.734 222.849 439.646 220.802 439.646Z" stroke="#000000" stroke-linecap="round" stroke-linejoin="round" stroke-miterlimit="10"/><path d="M222.849 564.734 224.896 564.734 224.896 495.24 222.849 495.24Z" stroke="#000000" stroke-linecap="round" stroke-linejoin="round" stroke-miterlimit="10"/><path d="M224.896 564.734 226.943 564.734 226.943 467.443 224.896 467.443Z" stroke="#000000" stroke-linecap="round" stroke-linejoin="round" stroke-miterlimit="10"/><path d="M226.943 564.734 228.99 564.734 228.99 495.24 226.943 495.24Z" stroke="#000000" stroke-linecap="round" stroke-linejoin="round" stroke-miterlimit="10"/><path d="M228.99 564.734 231.036 564.734 231.036 536.938 228.99 536.938Z" stroke="#000000" stroke-linecap="round" stroke-linejoin="round" stroke-miterlimit="10"/><path d="M231.042 564.734 233.089 564.734 233.089 523.036 231.042 523.036Z" stroke="#000000" stroke-linecap="round" stroke-linejoin="round" stroke-miterlimit="10"/><path d="M233.089 564.734 235.135 564.734 235.135 536.938 233.089 536.938Z" stroke="#000000" stroke-linecap="round" stroke-linejoin="round" stroke-miterlimit="10"/><path d="M235.135 564.734 237.182 564.734 237.182 550.833 235.135 550.833Z" stroke="#000000" stroke-linecap="round" stroke-linejoin="round" stroke-miterlimit="10"/><path d="M237.182 564.734 239.229 564.734 239.229 523.036 237.182 523.036Z" stroke="#000000" stroke-linecap="round" stroke-linejoin="round" stroke-miterlimit="10"/><path d="M239.234 564.734 241.281 564.734 241.281 550.833 239.234 550.833Z" stroke="#000000" stroke-linecap="round" stroke-linejoin="round" stroke-miterlimit="10"/><path d="M241.281 564.734 243.328 564.734Z" stroke="#000000" stroke-linecap="round" stroke-linejoin="round" stroke-miterlimit="10" fill="none"/><path d="M243.328 564.734 245.375 564.734 245.375 550.833 243.328 550.833Z" stroke="#000000" stroke-linecap="round" stroke-linejoin="round" stroke-miterlimit="10"/><path d="M245.375 564.734 247.422 564.734 247.422 536.938 245.375 536.938Z" stroke="#000000" stroke-linecap="round" stroke-linejoin="round" stroke-miterlimit="10"/><path d="M247.422 564.734 249.469 564.734Z" stroke="#000000" stroke-linecap="round" stroke-linejoin="round" stroke-miterlimit="10" fill="none"/><path d="M249.474 564.734 251.521 564.734Z" stroke="#000000" stroke-linecap="round" stroke-linejoin="round" stroke-miterlimit="10" fill="none"/><path d="M251.521 564.734 253.568 564.734 253.568 550.833 251.521 550.833Z" stroke="#000000" stroke-linecap="round" stroke-linejoin="round" stroke-miterlimit="10"/><path d="M253.568 564.734 255.615 564.734 255.615 550.833 253.568 550.833Z" stroke="#000000" stroke-linecap="round" stroke-linejoin="round" stroke-miterlimit="10"/><path d="M255.615 564.734 257.661 564.734Z" stroke="#000000" stroke-linecap="round" stroke-linejoin="round" stroke-miterlimit="10" fill="none"/><path d="M257.661 564.734 259.708 564.734Z" stroke="#000000" stroke-linecap="round" stroke-linejoin="round" stroke-miterlimit="10" fill="none"/><path d="M259.714 564.734 261.76 564.734Z" stroke="#000000" stroke-linecap="round" stroke-linejoin="round" stroke-miterlimit="10" fill="none"/><path d="M261.76 564.734 263.807 564.734Z" stroke="#000000" stroke-linecap="round" stroke-linejoin="round" stroke-miterlimit="10" fill="none"/><path d="M263.807 564.734 265.854 564.734Z" stroke="#000000" stroke-linecap="round" stroke-linejoin="round" stroke-miterlimit="10" fill="none"/><path d="M265.854 564.734 267.901 564.734Z" stroke="#000000" stroke-linecap="round" stroke-linejoin="round" stroke-miterlimit="10" fill="none"/><path d="M267.906 564.734 269.953 564.734Z" stroke="#000000" stroke-linecap="round" stroke-linejoin="round" stroke-miterlimit="10" fill="none"/><path d="M269.953 564.734 272 564.734Z" stroke="#000000" stroke-linecap="round" stroke-linejoin="round" stroke-miterlimit="10" fill="none"/><path d="M272 564.734 274.047 564.734Z" stroke="#000000" stroke-linecap="round" stroke-linejoin="round" stroke-miterlimit="10" fill="none"/><path d="M274.047 564.734 276.094 564.734Z" stroke="#000000" stroke-linecap="round" stroke-linejoin="round" stroke-miterlimit="10" fill="none"/><path d="M276.094 564.734 278.141 564.734 278.141 550.833 276.094 550.833Z" stroke="#000000" stroke-linecap="round" stroke-linejoin="round" stroke-miterlimit="10"/><g clip-path="url(#clip4)"><path d="M431.245 583.078 431.245 87.7188" stroke="#FF0000" stroke-width="3" stroke-linecap="round" stroke-linejoin="round" stroke-miterlimit="10" fill="none"/></g></g></g></g><text font-family="Times New Roman,Times New Roman_MSFontService,sans-serif" font-weight="400" font-size="24" transform="translate(223 658)">Ridge regression</text></g></svg>